<svg width="85" height="85" viewBox="0 0 85 85" fill="none" xmlns="http://www.w3.org/2000/svg">
<mask id="path-1-outside-1_107_21" maskUnits="userSpaceOnUse" x="0" y="0" width="85" height="85" fill="black">
<rect fill="white" width="85" height="85"/>
<path fill-rule="evenodd" clip-rule="evenodd" d="M55.603 2H29.3971V29.3972H2V55.603H29.3971V83H55.603V55.603H83V29.3972H55.603V2Z"/>
</mask>
<path fill-rule="evenodd" clip-rule="evenodd" d="M55.603 2H29.3971V29.3972H2V55.603H29.3971V83H55.603V55.603H83V29.3972H55.603V2Z" fill="#383838"/>
<path d="M29.3971 2V0H27.3971V2H29.3971ZM55.603 2H57.603V0H55.603V2ZM29.3971 29.3972V31.3972H31.3971V29.3972H29.3971ZM2 29.3972V27.3972H0V29.3972H2ZM2 55.603H0V57.603H2V55.603ZM29.3971 55.603H31.3971V53.603H29.3971V55.603ZM29.3971 83H27.3971V85H29.3971V83ZM55.603 83V85H57.603V83H55.603ZM55.603 55.603V53.603H53.603V55.603H55.603ZM83 55.603V57.603H85V55.603H83ZM83 29.3972H85V27.3972H83V29.3972ZM55.603 29.3972H53.603V31.3972H55.603V29.3972ZM29.3971 4H55.603V0H29.3971V4ZM31.3971 29.3972V2H27.3971V29.3972H31.3971ZM2 31.3972H29.3971V27.3972H2V31.3972ZM4 55.603V29.3972H0V55.603H4ZM29.3971 53.603H2V57.603H29.3971V53.603ZM31.3971 83V55.603H27.3971V83H31.3971ZM55.603 81H29.3971V85H55.603V81ZM53.603 55.603V83H57.603V55.603H53.603ZM83 53.603H55.603V57.603H83V53.603ZM81 29.3972V55.603H85V29.3972H81ZM55.603 31.3972H83V27.3972H55.603V31.3972ZM53.603 2V29.3972H57.603V2H53.603Z" fill="#737373" mask="url(#path-1-outside-1_107_21)"/>
</svg>
