<svg width="384" height="259" viewBox="0 0 384 259" fill="none" xmlns="http://www.w3.org/2000/svg">
<line y1="258.5" x2="384" y2="258.5" stroke="#61A7F9"/>
<path d="M128.604 34.42H117.66L115.644 40H112.188L121.26 15.052H125.04L134.076 40H130.62L128.604 34.42ZM127.668 31.756L123.132 19.084L118.596 31.756H127.668ZM142.026 22.972V34.6C142.026 35.56 142.23 36.244 142.638 36.652C143.046 37.036 143.754 37.228 144.762 37.228H147.174V40H144.222C142.398 40 141.03 39.58 140.118 38.74C139.206 37.9 138.75 36.52 138.75 34.6V22.972H136.194V20.272H138.75V15.304H142.026V20.272H147.174V22.972H142.026ZM154.419 23.476C154.995 22.348 155.811 21.472 156.867 20.848C157.947 20.224 159.255 19.912 160.791 19.912V23.296H159.927C156.255 23.296 154.419 25.288 154.419 29.272V40H151.143V20.272H154.419V23.476ZM166.265 17.068C165.641 17.068 165.113 16.852 164.681 16.42C164.249 15.988 164.033 15.46 164.033 14.836C164.033 14.212 164.249 13.684 164.681 13.252C165.113 12.82 165.641 12.604 166.265 12.604C166.865 12.604 167.369 12.82 167.777 13.252C168.209 13.684 168.425 14.212 168.425 14.836C168.425 15.46 168.209 15.988 167.777 16.42C167.369 16.852 166.865 17.068 166.265 17.068ZM167.849 20.272V40H164.573V20.272H167.849ZM176.708 23.944C177.38 22.768 178.364 21.808 179.66 21.064C180.956 20.32 182.432 19.948 184.088 19.948C185.864 19.948 187.46 20.368 188.876 21.208C190.292 22.048 191.408 23.236 192.224 24.772C193.04 26.284 193.448 28.048 193.448 30.064C193.448 32.056 193.04 33.832 192.224 35.392C191.408 36.952 190.28 38.164 188.84 39.028C187.424 39.892 185.84 40.324 184.088 40.324C182.384 40.324 180.884 39.952 179.588 39.208C178.316 38.464 177.356 37.516 176.708 36.364V40H173.432V13.36H176.708V23.944ZM190.1 30.064C190.1 28.576 189.8 27.28 189.2 26.176C188.6 25.072 187.784 24.232 186.752 23.656C185.744 23.08 184.628 22.792 183.404 22.792C182.204 22.792 181.088 23.092 180.056 23.692C179.048 24.268 178.232 25.12 177.608 26.248C177.008 27.352 176.708 28.636 176.708 30.1C176.708 31.588 177.008 32.896 177.608 34.024C178.232 35.128 179.048 35.98 180.056 36.58C181.088 37.156 182.204 37.444 183.404 37.444C184.628 37.444 185.744 37.156 186.752 36.58C187.784 35.98 188.6 35.128 189.2 34.024C189.8 32.896 190.1 31.576 190.1 30.064ZM215.256 20.272V40H211.98V37.084C211.356 38.092 210.48 38.884 209.352 39.46C208.248 40.012 207.024 40.288 205.68 40.288C204.144 40.288 202.764 39.976 201.54 39.352C200.316 38.704 199.344 37.744 198.624 36.472C197.928 35.2 197.58 33.652 197.58 31.828V20.272H200.82V31.396C200.82 33.34 201.312 34.84 202.296 35.896C203.28 36.928 204.624 37.444 206.328 37.444C208.08 37.444 209.46 36.904 210.468 35.824C211.476 34.744 211.98 33.172 211.98 31.108V20.272H215.256ZM224.784 22.972V34.6C224.784 35.56 224.988 36.244 225.396 36.652C225.804 37.036 226.512 37.228 227.52 37.228H229.932V40H226.98C225.156 40 223.788 39.58 222.876 38.74C221.964 37.9 221.508 36.52 221.508 34.6V22.972H218.952V20.272H221.508V15.304H224.784V20.272H229.932V22.972H224.784ZM251.901 29.38C251.901 30.004 251.865 30.664 251.793 31.36H236.025C236.145 33.304 236.805 34.828 238.005 35.932C239.229 37.012 240.705 37.552 242.433 37.552C243.849 37.552 245.025 37.228 245.961 36.58C246.921 35.908 247.593 35.02 247.977 33.916H251.505C250.977 35.812 249.921 37.36 248.337 38.56C246.753 39.736 244.785 40.324 242.433 40.324C240.561 40.324 238.881 39.904 237.393 39.064C235.929 38.224 234.777 37.036 233.937 35.5C233.097 33.94 232.677 32.14 232.677 30.1C232.677 28.06 233.085 26.272 233.901 24.736C234.717 23.2 235.857 22.024 237.321 21.208C238.809 20.368 240.513 19.948 242.433 19.948C244.305 19.948 245.961 20.356 247.401 21.172C248.841 21.988 249.945 23.116 250.713 24.556C251.505 25.972 251.901 27.58 251.901 29.38ZM248.517 28.696C248.517 27.448 248.241 26.38 247.689 25.492C247.137 24.58 246.381 23.896 245.421 23.44C244.485 22.96 243.441 22.72 242.289 22.72C240.633 22.72 239.217 23.248 238.041 24.304C236.889 25.36 236.229 26.824 236.061 28.696H248.517ZM263.209 40.324C261.697 40.324 260.341 40.072 259.141 39.568C257.941 39.04 256.993 38.32 256.297 37.408C255.601 36.472 255.217 35.404 255.145 34.204H258.529C258.625 35.188 259.081 35.992 259.897 36.616C260.737 37.24 261.829 37.552 263.173 37.552C264.421 37.552 265.405 37.276 266.125 36.724C266.845 36.172 267.205 35.476 267.205 34.636C267.205 33.772 266.821 33.136 266.053 32.728C265.285 32.296 264.097 31.876 262.489 31.468C261.025 31.084 259.825 30.7 258.889 30.316C257.977 29.908 257.185 29.32 256.513 28.552C255.865 27.76 255.541 26.728 255.541 25.456C255.541 24.448 255.841 23.524 256.441 22.684C257.041 21.844 257.893 21.184 258.997 20.704C260.101 20.2 261.361 19.948 262.777 19.948C264.961 19.948 266.725 20.5 268.069 21.604C269.413 22.708 270.133 24.22 270.229 26.14H266.953C266.881 25.108 266.461 24.28 265.693 23.656C264.949 23.032 263.941 22.72 262.669 22.72C261.493 22.72 260.557 22.972 259.861 23.476C259.165 23.98 258.817 24.64 258.817 25.456C258.817 26.104 259.021 26.644 259.429 27.076C259.861 27.484 260.389 27.82 261.013 28.084C261.661 28.324 262.549 28.6 263.677 28.912C265.093 29.296 266.245 29.68 267.133 30.064C268.021 30.424 268.777 30.976 269.401 31.72C270.049 32.464 270.385 33.436 270.409 34.636C270.409 35.716 270.109 36.688 269.509 37.552C268.909 38.416 268.057 39.1 266.953 39.604C265.873 40.084 264.625 40.324 263.209 40.324Z" fill="white"/>
<path d="M72.672 80.272L66.36 97H63.84L57.528 80.272H59.856L65.112 94.696L70.368 80.272H72.672ZM87.0668 89.92C87.0668 90.336 87.0428 90.776 86.9948 91.24H76.4828C76.5628 92.536 77.0028 93.552 77.8028 94.288C78.6188 95.008 79.6028 95.368 80.7548 95.368C81.6988 95.368 82.4828 95.152 83.1068 94.72C83.7468 94.272 84.1948 93.68 84.4508 92.944H86.8028C86.4508 94.208 85.7468 95.24 84.6908 96.04C83.6348 96.824 82.3228 97.216 80.7548 97.216C79.5068 97.216 78.3868 96.936 77.3948 96.376C76.4188 95.816 75.6508 95.024 75.0908 94C74.5308 92.96 74.2508 91.76 74.2508 90.4C74.2508 89.04 74.5228 87.848 75.0668 86.824C75.6108 85.8 76.3708 85.016 77.3468 84.472C78.3388 83.912 79.4748 83.632 80.7548 83.632C82.0028 83.632 83.1068 83.904 84.0668 84.448C85.0268 84.992 85.7628 85.744 86.2748 86.704C86.8028 87.648 87.0668 88.72 87.0668 89.92ZM84.8108 89.464C84.8108 88.632 84.6268 87.92 84.2588 87.328C83.8908 86.72 83.3868 86.264 82.7468 85.96C82.1228 85.64 81.4268 85.48 80.6588 85.48C79.5548 85.48 78.6108 85.832 77.8268 86.536C77.0588 87.24 76.6188 88.216 76.5068 89.464H84.8108ZM96.4776 83.608C97.4696 83.608 98.3656 83.824 99.1656 84.256C99.9656 84.672 100.59 85.304 101.038 86.152C101.502 87 101.734 88.032 101.734 89.248V97H99.5736V89.56C99.5736 88.248 99.2456 87.248 98.5896 86.56C97.9336 85.856 97.0376 85.504 95.9016 85.504C94.7496 85.504 93.8296 85.864 93.1416 86.584C92.4696 87.304 92.1336 88.352 92.1336 89.728V97H89.9496V79.24H92.1336V85.72C92.5656 85.048 93.1576 84.528 93.9096 84.16C94.6776 83.792 95.5336 83.608 96.4776 83.608ZM106.429 81.712C106.013 81.712 105.661 81.568 105.373 81.28C105.085 80.992 104.941 80.64 104.941 80.224C104.941 79.808 105.085 79.456 105.373 79.168C105.661 78.88 106.013 78.736 106.429 78.736C106.829 78.736 107.165 78.88 107.437 79.168C107.725 79.456 107.869 79.808 107.869 80.224C107.869 80.64 107.725 80.992 107.437 81.28C107.165 81.568 106.829 81.712 106.429 81.712ZM107.485 83.848V97H105.301V83.848H107.485ZM110.391 90.4C110.391 89.04 110.663 87.856 111.207 86.848C111.751 85.824 112.503 85.032 113.463 84.472C114.439 83.912 115.551 83.632 116.799 83.632C118.415 83.632 119.743 84.024 120.783 84.808C121.839 85.592 122.535 86.68 122.871 88.072H120.519C120.295 87.272 119.855 86.64 119.199 86.176C118.559 85.712 117.759 85.48 116.799 85.48C115.551 85.48 114.543 85.912 113.775 86.776C113.007 87.624 112.623 88.832 112.623 90.4C112.623 91.984 113.007 93.208 113.775 94.072C114.543 94.936 115.551 95.368 116.799 95.368C117.759 95.368 118.559 95.144 119.199 94.696C119.839 94.248 120.279 93.608 120.519 92.776H122.871C122.519 94.12 121.815 95.2 120.759 96.016C119.703 96.816 118.383 97.216 116.799 97.216C115.551 97.216 114.439 96.936 113.463 96.376C112.503 95.816 111.751 95.024 111.207 94C110.663 92.976 110.391 91.776 110.391 90.4ZM137.45 83.848V97H135.266V95.056C134.85 95.728 134.266 96.256 133.514 96.64C132.778 97.008 131.962 97.192 131.066 97.192C130.042 97.192 129.122 96.984 128.306 96.568C127.49 96.136 126.842 95.496 126.362 94.648C125.898 93.8 125.666 92.768 125.666 91.552V83.848H127.826V91.264C127.826 92.56 128.154 93.56 128.81 94.264C129.466 94.952 130.362 95.296 131.498 95.296C132.666 95.296 133.586 94.936 134.258 94.216C134.93 93.496 135.266 92.448 135.266 91.072V83.848H137.45ZM143.321 79.24V97H141.137V79.24H143.321ZM159.043 89.92C159.043 90.336 159.019 90.776 158.971 91.24H148.459C148.539 92.536 148.979 93.552 149.779 94.288C150.595 95.008 151.579 95.368 152.731 95.368C153.675 95.368 154.459 95.152 155.083 94.72C155.723 94.272 156.171 93.68 156.427 92.944H158.779C158.427 94.208 157.723 95.24 156.667 96.04C155.611 96.824 154.299 97.216 152.731 97.216C151.483 97.216 150.363 96.936 149.371 96.376C148.395 95.816 147.627 95.024 147.067 94C146.507 92.96 146.227 91.76 146.227 90.4C146.227 89.04 146.499 87.848 147.043 86.824C147.587 85.8 148.347 85.016 149.323 84.472C150.315 83.912 151.451 83.632 152.731 83.632C153.979 83.632 155.083 83.904 156.043 84.448C157.003 84.992 157.739 85.744 158.251 86.704C158.779 87.648 159.043 88.72 159.043 89.92ZM156.787 89.464C156.787 88.632 156.603 87.92 156.235 87.328C155.867 86.72 155.363 86.264 154.723 85.96C154.099 85.64 153.403 85.48 152.635 85.48C151.531 85.48 150.587 85.832 149.803 86.536C149.035 87.24 148.595 88.216 148.483 89.464H156.787ZM162.622 97.144C162.206 97.144 161.854 97 161.566 96.712C161.278 96.424 161.134 96.072 161.134 95.656C161.134 95.24 161.278 94.888 161.566 94.6C161.854 94.312 162.206 94.168 162.622 94.168C163.022 94.168 163.358 94.312 163.63 94.6C163.918 94.888 164.062 95.24 164.062 95.656C164.062 96.072 163.918 96.424 163.63 96.712C163.358 97 163.022 97.144 162.622 97.144ZM162.622 86.872C162.206 86.872 161.854 86.728 161.566 86.44C161.278 86.152 161.134 85.8 161.134 85.384C161.134 84.968 161.278 84.616 161.566 84.328C161.854 84.04 162.206 83.896 162.622 83.896C163.022 83.896 163.358 84.04 163.63 84.328C163.918 84.616 164.062 84.968 164.062 85.384C164.062 85.8 163.918 86.152 163.63 86.44C163.358 86.728 163.022 86.872 162.622 86.872Z" fill="#61A7F9"/>
<path d="M49.328 89.152H44.216V94.336H42.176V89.152H37.088V87.304H42.176V82.096H44.216V87.304H49.328V89.152Z" fill="white"/>
<path d="M60.032 128.296C60.48 127.512 61.136 126.872 62 126.376C62.864 125.88 63.848 125.632 64.952 125.632C66.136 125.632 67.2 125.912 68.144 126.472C69.088 127.032 69.832 127.824 70.376 128.848C70.92 129.856 71.192 131.032 71.192 132.376C71.192 133.704 70.92 134.888 70.376 135.928C69.832 136.968 69.08 137.776 68.12 138.352C67.176 138.928 66.12 139.216 64.952 139.216C63.816 139.216 62.816 138.968 61.952 138.472C61.104 137.976 60.464 137.344 60.032 136.576V139H57.848V121.24H60.032V128.296ZM68.96 132.376C68.96 131.384 68.76 130.52 68.36 129.784C67.96 129.048 67.416 128.488 66.728 128.104C66.056 127.72 65.312 127.528 64.496 127.528C63.696 127.528 62.952 127.728 62.264 128.128C61.592 128.512 61.048 129.08 60.632 129.832C60.232 130.568 60.032 131.424 60.032 132.4C60.032 133.392 60.232 134.264 60.632 135.016C61.048 135.752 61.592 136.32 62.264 136.72C62.952 137.104 63.696 137.296 64.496 137.296C65.312 137.296 66.056 137.104 66.728 136.72C67.416 136.32 67.96 135.752 68.36 135.016C68.76 134.264 68.96 133.384 68.96 132.376ZM76.2508 127.984C76.6348 127.232 77.1788 126.648 77.8828 126.232C78.6028 125.816 79.4748 125.608 80.4988 125.608V127.864H79.9228C77.4748 127.864 76.2508 129.192 76.2508 131.848V139H74.0668V125.848H76.2508V127.984ZM82.2039 132.376C82.2039 131.032 82.4759 129.856 83.0199 128.848C83.5639 127.824 84.3079 127.032 85.2519 126.472C86.2119 125.912 87.2759 125.632 88.4439 125.632C89.5959 125.632 90.5959 125.88 91.4439 126.376C92.2919 126.872 92.9239 127.496 93.3399 128.248V125.848H95.5479V139H93.3399V136.552C92.9079 137.32 92.2599 137.96 91.3959 138.472C90.5479 138.968 89.5559 139.216 88.4199 139.216C87.2519 139.216 86.1959 138.928 85.2519 138.352C84.3079 137.776 83.5639 136.968 83.0199 135.928C82.4759 134.888 82.2039 133.704 82.2039 132.376ZM93.3399 132.4C93.3399 131.408 93.1399 130.544 92.7399 129.808C92.3399 129.072 91.7959 128.512 91.1079 128.128C90.4359 127.728 89.6919 127.528 88.8759 127.528C88.0599 127.528 87.3159 127.72 86.6439 128.104C85.9719 128.488 85.4359 129.048 85.0359 129.784C84.6359 130.52 84.4359 131.384 84.4359 132.376C84.4359 133.384 84.6359 134.264 85.0359 135.016C85.4359 135.752 85.9719 136.32 86.6439 136.72C87.3159 137.104 88.0599 137.296 88.8759 137.296C89.6919 137.296 90.4359 137.104 91.1079 136.72C91.7959 136.32 92.3399 135.752 92.7399 135.016C93.1399 134.264 93.3399 133.392 93.3399 132.4ZM105.647 125.608C107.247 125.608 108.543 126.096 109.535 127.072C110.527 128.032 111.023 129.424 111.023 131.248V139H108.863V131.56C108.863 130.248 108.535 129.248 107.879 128.56C107.223 127.856 106.327 127.504 105.191 127.504C104.039 127.504 103.119 127.864 102.431 128.584C101.759 129.304 101.423 130.352 101.423 131.728V139H99.2386V125.848H101.423V127.72C101.855 127.048 102.439 126.528 103.175 126.16C103.927 125.792 104.751 125.608 105.647 125.608ZM113.774 132.376C113.774 131.032 114.046 129.856 114.59 128.848C115.134 127.824 115.878 127.032 116.822 126.472C117.782 125.912 118.854 125.632 120.038 125.632C121.062 125.632 122.014 125.872 122.894 126.352C123.774 126.816 124.446 127.432 124.91 128.2V121.24H127.118V139H124.91V136.528C124.478 137.312 123.838 137.96 122.99 138.472C122.142 138.968 121.15 139.216 120.014 139.216C118.846 139.216 117.782 138.928 116.822 138.352C115.878 137.776 115.134 136.968 114.59 135.928C114.046 134.888 113.774 133.704 113.774 132.376ZM124.91 132.4C124.91 131.408 124.71 130.544 124.31 129.808C123.91 129.072 123.366 128.512 122.678 128.128C122.006 127.728 121.262 127.528 120.446 127.528C119.63 127.528 118.886 127.72 118.214 128.104C117.542 128.488 117.006 129.048 116.606 129.784C116.206 130.52 116.006 131.384 116.006 132.376C116.006 133.384 116.206 134.264 116.606 135.016C117.006 135.752 117.542 136.32 118.214 136.72C118.886 137.104 119.63 137.296 120.446 137.296C121.262 137.296 122.006 137.104 122.678 136.72C123.366 136.32 123.91 135.752 124.31 135.016C124.71 134.264 124.91 133.392 124.91 132.4ZM131.505 139.144C131.089 139.144 130.737 139 130.449 138.712C130.161 138.424 130.017 138.072 130.017 137.656C130.017 137.24 130.161 136.888 130.449 136.6C130.737 136.312 131.089 136.168 131.505 136.168C131.905 136.168 132.241 136.312 132.513 136.6C132.801 136.888 132.945 137.24 132.945 137.656C132.945 138.072 132.801 138.424 132.513 138.712C132.241 139 131.905 139.144 131.505 139.144ZM131.505 128.872C131.089 128.872 130.737 128.728 130.449 128.44C130.161 128.152 130.017 127.8 130.017 127.384C130.017 126.968 130.161 126.616 130.449 126.328C130.737 126.04 131.089 125.896 131.505 125.896C131.905 125.896 132.241 126.04 132.513 126.328C132.801 126.616 132.945 126.968 132.945 127.384C132.945 127.8 132.801 128.152 132.513 128.44C132.241 128.728 131.905 128.872 131.505 128.872Z" fill="#61A7F9"/>
<path d="M49.328 131.152H44.216V136.336H42.176V131.152H37.088V129.304H42.176V124.096H44.216V129.304H49.328V131.152Z" fill="white"/>
<path d="M78.816 167.392V184H76.632V171.616L71.112 184H69.576L64.032 171.592V184H61.848V167.392H64.2L70.344 181.12L76.488 167.392H78.816ZM88.2559 184.216C87.0239 184.216 85.9039 183.936 84.8959 183.376C83.9039 182.816 83.1199 182.024 82.5439 181C81.9839 179.96 81.7039 178.76 81.7039 177.4C81.7039 176.056 81.9919 174.872 82.5679 173.848C83.1599 172.808 83.9599 172.016 84.9679 171.472C85.9759 170.912 87.1039 170.632 88.3519 170.632C89.5999 170.632 90.7279 170.912 91.7359 171.472C92.7439 172.016 93.5359 172.8 94.1119 173.824C94.7039 174.848 94.9999 176.04 94.9999 177.4C94.9999 178.76 94.6959 179.96 94.0879 181C93.4959 182.024 92.6879 182.816 91.6639 183.376C90.6399 183.936 89.5039 184.216 88.2559 184.216ZM88.2559 182.296C89.0399 182.296 89.7759 182.112 90.4639 181.744C91.1519 181.376 91.7039 180.824 92.1199 180.088C92.5519 179.352 92.7679 178.456 92.7679 177.4C92.7679 176.344 92.5599 175.448 92.1439 174.712C91.7279 173.976 91.1839 173.432 90.5119 173.08C89.8399 172.712 89.1119 172.528 88.3279 172.528C87.5279 172.528 86.7919 172.712 86.1199 173.08C85.4639 173.432 84.9359 173.976 84.5359 174.712C84.1359 175.448 83.9359 176.344 83.9359 177.4C83.9359 178.472 84.1279 179.376 84.5119 180.112C84.9119 180.848 85.4399 181.4 86.0959 181.768C86.7519 182.12 87.4719 182.296 88.2559 182.296ZM97.0554 177.376C97.0554 176.032 97.3274 174.856 97.8714 173.848C98.4154 172.824 99.1594 172.032 100.103 171.472C101.063 170.912 102.135 170.632 103.319 170.632C104.343 170.632 105.295 170.872 106.175 171.352C107.055 171.816 107.727 172.432 108.191 173.2V166.24H110.399V184H108.191V181.528C107.759 182.312 107.119 182.96 106.271 183.472C105.423 183.968 104.431 184.216 103.295 184.216C102.127 184.216 101.063 183.928 100.103 183.352C99.1594 182.776 98.4154 181.968 97.8714 180.928C97.3274 179.888 97.0554 178.704 97.0554 177.376ZM108.191 177.4C108.191 176.408 107.991 175.544 107.591 174.808C107.191 174.072 106.647 173.512 105.959 173.128C105.287 172.728 104.543 172.528 103.727 172.528C102.911 172.528 102.167 172.72 101.495 173.104C100.823 173.488 100.287 174.048 99.8874 174.784C99.4874 175.52 99.2874 176.384 99.2874 177.376C99.2874 178.384 99.4874 179.264 99.8874 180.016C100.287 180.752 100.823 181.32 101.495 181.72C102.167 182.104 102.911 182.296 103.727 182.296C104.543 182.296 105.287 182.104 105.959 181.72C106.647 181.32 107.191 180.752 107.591 180.016C107.991 179.264 108.191 178.392 108.191 177.4ZM126.09 176.92C126.09 177.336 126.066 177.776 126.018 178.24H115.506C115.586 179.536 116.026 180.552 116.826 181.288C117.642 182.008 118.626 182.368 119.778 182.368C120.722 182.368 121.506 182.152 122.13 181.72C122.77 181.272 123.218 180.68 123.474 179.944H125.826C125.474 181.208 124.77 182.24 123.714 183.04C122.658 183.824 121.346 184.216 119.778 184.216C118.53 184.216 117.41 183.936 116.418 183.376C115.442 182.816 114.674 182.024 114.114 181C113.554 179.96 113.274 178.76 113.274 177.4C113.274 176.04 113.546 174.848 114.09 173.824C114.634 172.8 115.394 172.016 116.37 171.472C117.362 170.912 118.498 170.632 119.778 170.632C121.026 170.632 122.13 170.904 123.09 171.448C124.05 171.992 124.786 172.744 125.298 173.704C125.826 174.648 126.09 175.72 126.09 176.92ZM123.834 176.464C123.834 175.632 123.65 174.92 123.282 174.328C122.914 173.72 122.41 173.264 121.77 172.96C121.146 172.64 120.45 172.48 119.682 172.48C118.578 172.48 117.634 172.832 116.85 173.536C116.082 174.24 115.642 175.216 115.53 176.464H123.834ZM131.157 166.24V184H128.973V166.24H131.157ZM135.575 184.144C135.159 184.144 134.807 184 134.519 183.712C134.231 183.424 134.087 183.072 134.087 182.656C134.087 182.24 134.231 181.888 134.519 181.6C134.807 181.312 135.159 181.168 135.575 181.168C135.975 181.168 136.311 181.312 136.583 181.6C136.871 181.888 137.015 182.24 137.015 182.656C137.015 183.072 136.871 183.424 136.583 183.712C136.311 184 135.975 184.144 135.575 184.144ZM135.575 173.872C135.159 173.872 134.807 173.728 134.519 173.44C134.231 173.152 134.087 172.8 134.087 172.384C134.087 171.968 134.231 171.616 134.519 171.328C134.807 171.04 135.159 170.896 135.575 170.896C135.975 170.896 136.311 171.04 136.583 171.328C136.871 171.616 137.015 171.968 137.015 172.384C137.015 172.8 136.871 173.152 136.583 173.44C136.311 173.728 135.975 173.872 135.575 173.872Z" fill="#61A7F9"/>
<path d="M50.328 176.152H45.216V181.336H43.176V176.152H38.088V174.304H43.176V169.096H45.216V174.304H50.328V176.152Z" fill="white"/>
<path d="M54.032 218.624C54.032 216.992 54.4 215.528 55.136 214.232C55.872 212.92 56.872 211.896 58.136 211.16C59.416 210.424 60.832 210.056 62.384 210.056C64.208 210.056 65.8 210.496 67.16 211.376C68.52 212.256 69.512 213.504 70.136 215.12H67.52C67.056 214.112 66.384 213.336 65.504 212.792C64.64 212.248 63.6 211.976 62.384 211.976C61.216 211.976 60.168 212.248 59.24 212.792C58.312 213.336 57.584 214.112 57.056 215.12C56.528 216.112 56.264 217.28 56.264 218.624C56.264 219.952 56.528 221.12 57.056 222.128C57.584 223.12 58.312 223.888 59.24 224.432C60.168 224.976 61.216 225.248 62.384 225.248C63.6 225.248 64.64 224.984 65.504 224.456C66.384 223.912 67.056 223.136 67.52 222.128H70.136C69.512 223.728 68.52 224.968 67.16 225.848C65.8 226.712 64.208 227.144 62.384 227.144C60.832 227.144 59.416 226.784 58.136 226.064C56.872 225.328 55.872 224.312 55.136 223.016C54.4 221.72 54.032 220.256 54.032 218.624ZM79.1231 227.216C77.8911 227.216 76.7711 226.936 75.7631 226.376C74.7711 225.816 73.9871 225.024 73.4111 224C72.8511 222.96 72.5711 221.76 72.5711 220.4C72.5711 219.056 72.8591 217.872 73.4351 216.848C74.0271 215.808 74.8271 215.016 75.8351 214.472C76.8431 213.912 77.9711 213.632 79.2191 213.632C80.4671 213.632 81.5951 213.912 82.6031 214.472C83.6111 215.016 84.4031 215.8 84.9791 216.824C85.5711 217.848 85.8671 219.04 85.8671 220.4C85.8671 221.76 85.5631 222.96 84.9551 224C84.3631 225.024 83.5551 225.816 82.5311 226.376C81.5071 226.936 80.3711 227.216 79.1231 227.216ZM79.1231 225.296C79.9071 225.296 80.6431 225.112 81.3311 224.744C82.0191 224.376 82.5711 223.824 82.9871 223.088C83.4191 222.352 83.6351 221.456 83.6351 220.4C83.6351 219.344 83.4271 218.448 83.0111 217.712C82.5951 216.976 82.0511 216.432 81.3791 216.08C80.7071 215.712 79.9791 215.528 79.1951 215.528C78.3951 215.528 77.6591 215.712 76.9871 216.08C76.3311 216.432 75.8031 216.976 75.4031 217.712C75.0031 218.448 74.8031 219.344 74.8031 220.4C74.8031 221.472 74.9951 222.376 75.3791 223.112C75.7791 223.848 76.3071 224.4 76.9631 224.768C77.6191 225.12 78.3391 225.296 79.1231 225.296ZM90.9226 209.24V227H88.7386V209.24H90.9226ZM100.381 227.216C99.1489 227.216 98.0289 226.936 97.0209 226.376C96.0289 225.816 95.2449 225.024 94.6689 224C94.1089 222.96 93.8289 221.76 93.8289 220.4C93.8289 219.056 94.1169 217.872 94.6929 216.848C95.2849 215.808 96.0849 215.016 97.0929 214.472C98.1009 213.912 99.2289 213.632 100.477 213.632C101.725 213.632 102.853 213.912 103.861 214.472C104.869 215.016 105.661 215.8 106.237 216.824C106.829 217.848 107.125 219.04 107.125 220.4C107.125 221.76 106.821 222.96 106.213 224C105.621 225.024 104.813 225.816 103.789 226.376C102.765 226.936 101.629 227.216 100.381 227.216ZM100.381 225.296C101.165 225.296 101.901 225.112 102.589 224.744C103.277 224.376 103.829 223.824 104.245 223.088C104.677 222.352 104.893 221.456 104.893 220.4C104.893 219.344 104.685 218.448 104.269 217.712C103.853 216.976 103.309 216.432 102.637 216.08C101.965 215.712 101.237 215.528 100.453 215.528C99.6529 215.528 98.9169 215.712 98.2449 216.08C97.5889 216.432 97.0609 216.976 96.6609 217.712C96.2609 218.448 96.0609 219.344 96.0609 220.4C96.0609 221.472 96.2529 222.376 96.6369 223.112C97.0369 223.848 97.5649 224.4 98.2209 224.768C98.8769 225.12 99.5969 225.296 100.381 225.296ZM112.18 215.984C112.564 215.232 113.108 214.648 113.812 214.232C114.532 213.816 115.404 213.608 116.428 213.608V215.864H115.852C113.404 215.864 112.18 217.192 112.18 219.848V227H109.996V213.848H112.18V215.984ZM119.646 227.144C119.23 227.144 118.878 227 118.59 226.712C118.302 226.424 118.158 226.072 118.158 225.656C118.158 225.24 118.302 224.888 118.59 224.6C118.878 224.312 119.23 224.168 119.646 224.168C120.046 224.168 120.382 224.312 120.654 224.6C120.942 224.888 121.086 225.24 121.086 225.656C121.086 226.072 120.942 226.424 120.654 226.712C120.382 227 120.046 227.144 119.646 227.144ZM119.646 216.872C119.23 216.872 118.878 216.728 118.59 216.44C118.302 216.152 118.158 215.8 118.158 215.384C118.158 214.968 118.302 214.616 118.59 214.328C118.878 214.04 119.23 213.896 119.646 213.896C120.046 213.896 120.382 214.04 120.654 214.328C120.942 214.616 121.086 214.968 121.086 215.384C121.086 215.8 120.942 216.152 120.654 216.44C120.382 216.728 120.046 216.872 119.646 216.872Z" fill="#61A7F9"/>
<path d="M48.328 219.152H43.216V224.336H41.176V219.152H36.088V217.304H41.176V212.096H43.216V217.304H48.328V219.152Z" fill="white"/>
</svg>
