<svg width="860" height="69" viewBox="0 0 860 69" fill="none" xmlns="http://www.w3.org/2000/svg">
<rect width="430" height="69" fill="#383838"/>
<path d="M13 30H67L73 38H18L13 30Z" fill="#CAB81A"/>
<path d="M111 30H165L171 38H116L111 30Z" fill="#CAB81A"/>
<path d="M211 30H265L271 38H216L211 30Z" fill="#CAB81A"/>
<path d="M311 30H365L371 38H316L311 30Z" fill="#CAB81A"/>
<rect x="430" width="430" height="69" fill="#383838"/>
<path d="M443 30H497L503 38H448L443 30Z" fill="#CAB81A"/>
<path d="M541 30H595L601 38H546L541 30Z" fill="#CAB81A"/>
<path d="M641 30H695L701 38H646L641 30Z" fill="#CAB81A"/>
<path d="M741 30H795L801 38H746L741 30Z" fill="#CAB81A"/>
</svg>
