<svg width="65" height="65" viewBox="0 0 65 65" fill="none" xmlns="http://www.w3.org/2000/svg">
<circle cx="32.5" cy="32.5" r="32.5" fill="#5A75FF"/>
<path d="M33.4999 15.237C30.5582 15.2375 27.6718 16.0366 25.1486 17.549C22.6254 19.0614 20.5601 21.2303 19.173 23.8244C17.7858 26.4186 17.1289 29.3406 17.2722 32.2789C17.4156 35.2171 18.3538 38.0613 19.9869 40.5081C21.62 42.9549 23.8867 44.9125 26.5451 46.1721C29.2035 47.4316 32.154 47.9459 35.0818 47.6601C38.0096 47.3743 40.8049 46.2991 43.1695 44.5491C45.5342 42.7992 47.3794 40.4402 48.5084 37.7238C49.0626 36.3913 47.7349 35.0523 46.3992 35.595C44.1099 36.5223 41.5679 36.618 39.2153 35.8654C36.8627 35.1129 34.8483 33.5596 33.5223 31.4757C32.1962 29.3917 31.6425 26.909 31.9572 24.4591C32.272 22.0092 33.4354 19.7471 35.2452 18.0661L35.3703 17.9361C36.2657 16.9124 35.5539 15.25 34.1386 15.25H33.7063L33.5958 15.2402L33.4999 15.237Z" fill="black"/>
</svg>
