<svg width="65" height="65" viewBox="0 0 65 65" fill="none" xmlns="http://www.w3.org/2000/svg">
<circle cx="32.5" cy="32.5" r="32.5" fill="#00147D"/>
<path d="M31.3125 13.4375V8.375C31.3125 7.92745 31.4903 7.49822 31.8068 7.18176C32.1232 6.86529 32.5524 6.6875 33 6.6875C33.4476 6.6875 33.8768 6.86529 34.1932 7.18176C34.5097 7.49822 34.6875 7.92745 34.6875 8.375V13.4375C34.6875 13.8851 34.5097 14.3143 34.1932 14.6307C33.8768 14.9472 33.4476 15.125 33 15.125C32.5524 15.125 32.1232 14.9472 31.8068 14.6307C31.4903 14.3143 31.3125 13.8851 31.3125 13.4375ZM46.5 32C46.5 34.67 45.7082 37.2801 44.2248 39.5002C42.7414 41.7203 40.633 43.4506 38.1662 44.4724C35.6994 45.4942 32.985 45.7615 30.3663 45.2406C27.7475 44.7197 25.3421 43.434 23.4541 41.5459C21.566 39.6579 20.2803 37.2525 19.7594 34.6337C19.2385 32.015 19.5058 29.3006 20.5276 26.8338C21.5494 24.367 23.2797 22.2586 25.4998 20.7752C27.7199 19.2918 30.33 18.5 33 18.5C36.5792 18.5039 40.0107 19.9275 42.5416 22.4584C45.0725 24.9893 46.4961 28.4208 46.5 32ZM43.125 32C43.125 29.9975 42.5312 28.0399 41.4186 26.3749C40.3061 24.7098 38.7248 23.4121 36.8747 22.6457C35.0246 21.8794 32.9888 21.6789 31.0247 22.0695C29.0607 22.4602 27.2566 23.4245 25.8405 24.8405C24.4245 26.2566 23.4602 28.0607 23.0695 30.0247C22.6789 31.9888 22.8794 34.0246 23.6457 35.8747C24.4121 37.7248 25.7098 39.3061 27.3749 40.4186C29.0399 41.5312 30.9975 42.125 33 42.125C35.6845 42.1222 38.2582 41.0546 40.1564 39.1564C42.0546 37.2582 43.1222 34.6845 43.125 32ZM18.3061 19.6939C18.6227 20.0106 19.0522 20.1884 19.5 20.1884C19.9478 20.1884 20.3773 20.0105 20.6939 19.6939C21.0105 19.3773 21.1884 18.9478 21.1884 18.5C21.1884 18.0522 21.0106 17.6227 20.6939 17.3061L17.3189 13.9311C17.0023 13.6144 16.5728 13.4366 16.125 13.4366C15.6772 13.4366 15.2477 13.6144 14.9311 13.9311C14.6144 14.2477 14.4366 14.6772 14.4366 15.125C14.4366 15.5728 14.6144 16.0023 14.9311 16.3189L18.3061 19.6939ZM18.3061 44.3061L14.9311 47.6811C14.6144 47.9977 14.4366 48.4272 14.4366 48.875C14.4366 49.3228 14.6144 49.7523 14.9311 50.0689C15.2477 50.3856 15.6772 50.5634 16.125 50.5634C16.5728 50.5634 17.0023 50.3856 17.3189 50.0689L20.6939 46.6939C20.8507 46.5371 20.9751 46.351 21.0599 46.1461C21.1448 45.9413 21.1884 45.7217 21.1884 45.5C21.1884 45.2783 21.1448 45.0587 21.0599 44.8539C20.9751 44.649 20.8507 44.4629 20.6939 44.3061C20.5371 44.1493 20.351 44.0249 20.1461 43.9401C19.9413 43.8552 19.7217 43.8116 19.5 43.8116C19.2783 43.8116 19.0587 43.8552 18.8539 43.9401C18.649 44.0249 18.4629 44.1493 18.3061 44.3061ZM46.5 20.1875C46.7217 20.1877 46.9412 20.1442 47.1461 20.0595C47.3509 19.9748 47.5371 19.8506 47.6939 19.6939L51.0689 16.3189C51.3856 16.0023 51.5634 15.5728 51.5634 15.125C51.5634 14.6772 51.3856 14.2477 51.0689 13.9311C50.7523 13.6144 50.3228 13.4366 49.875 13.4366C49.4272 13.4366 48.9977 13.6144 48.6811 13.9311L45.3061 17.3061C45.0698 17.5421 44.9089 17.8429 44.8437 18.1704C44.7784 18.4979 44.8119 18.8374 44.9397 19.146C45.0675 19.4545 45.284 19.7181 45.5618 19.9035C45.8395 20.0889 46.166 20.1878 46.5 20.1875ZM47.6939 44.3061C47.3773 43.9894 46.9478 43.8116 46.5 43.8116C46.0522 43.8116 45.6227 43.9894 45.3061 44.3061C44.9894 44.6227 44.8116 45.0522 44.8116 45.5C44.8116 45.9478 44.9894 46.3773 45.3061 46.6939L48.6811 50.0689C48.8379 50.2257 49.024 50.3501 49.2289 50.4349C49.4337 50.5198 49.6533 50.5634 49.875 50.5634C50.0967 50.5634 50.3163 50.5198 50.5211 50.4349C50.726 50.3501 50.9121 50.2257 51.0689 50.0689C51.2257 49.9121 51.3501 49.726 51.4349 49.5211C51.5198 49.3163 51.5634 49.0967 51.5634 48.875C51.5634 48.6533 51.5198 48.4337 51.4349 48.2289C51.3501 48.024 51.2257 47.8379 51.0689 47.6811L47.6939 44.3061ZM16.125 32C16.125 31.5524 15.9472 31.1232 15.6307 30.8068C15.3143 30.4903 14.8851 30.3125 14.4375 30.3125H9.375C8.92745 30.3125 8.49822 30.4903 8.18176 30.8068C7.86529 31.1232 7.6875 31.5524 7.6875 32C7.6875 32.4476 7.86529 32.8768 8.18176 33.1932C8.49822 33.5097 8.92745 33.6875 9.375 33.6875H14.4375C14.8851 33.6875 15.3143 33.5097 15.6307 33.1932C15.9472 32.8768 16.125 32.4476 16.125 32ZM33 48.875C32.5524 48.875 32.1232 49.0528 31.8068 49.3693C31.4903 49.6857 31.3125 50.1149 31.3125 50.5625V55.625C31.3125 56.0726 31.4903 56.5018 31.8068 56.8182C32.1232 57.1347 32.5524 57.3125 33 57.3125C33.4476 57.3125 33.8768 57.1347 34.1932 56.8182C34.5097 56.5018 34.6875 56.0726 34.6875 55.625V50.5625C34.6875 50.1149 34.5097 49.6857 34.1932 49.3693C33.8768 49.0528 33.4476 48.875 33 48.875ZM56.625 30.3125H51.5625C51.1149 30.3125 50.6857 30.4903 50.3693 30.8068C50.0528 31.1232 49.875 31.5524 49.875 32C49.875 32.4476 50.0528 32.8768 50.3693 33.1932C50.6857 33.5097 51.1149 33.6875 51.5625 33.6875H56.625C57.0726 33.6875 57.5018 33.5097 57.8182 33.1932C58.1347 32.8768 58.3125 32.4476 58.3125 32C58.3125 31.5524 58.1347 31.1232 57.8182 30.8068C57.5018 30.4903 57.0726 30.3125 56.625 30.3125Z" fill="white"/>
</svg>
