<svg width="304" height="33" viewBox="0 0 304 33" fill="none" xmlns="http://www.w3.org/2000/svg">
<path d="M0.806 17.342C0.806 14.486 1.45 11.924 2.738 9.656C4.026 7.36 5.776 5.568 7.988 4.28C10.228 2.992 12.706 2.348 15.422 2.348C18.614 2.348 21.4 3.118 23.78 4.658C26.16 6.198 27.896 8.382 28.988 11.21H24.41C23.598 9.446 22.422 8.088 20.882 7.136C19.37 6.184 17.55 5.708 15.422 5.708C13.378 5.708 11.544 6.184 9.92 7.136C8.296 8.088 7.022 9.446 6.098 11.21C5.174 12.946 4.712 14.99 4.712 17.342C4.712 19.666 5.174 21.71 6.098 23.474C7.022 25.21 8.296 26.554 9.92 27.506C11.544 28.458 13.378 28.934 15.422 28.934C17.55 28.934 19.37 28.472 20.882 27.548C22.422 26.596 23.598 25.238 24.41 23.474H28.988C27.896 26.274 26.16 28.444 23.78 29.984C21.4 31.496 18.614 32.252 15.422 32.252C12.706 32.252 10.228 31.622 7.988 30.362C5.776 29.074 4.026 27.296 2.738 25.028C1.45 22.76 0.806 20.198 0.806 17.342ZM38.4994 0.92V32H34.6774V0.92H38.4994ZM43.5853 20.408C43.5853 18.056 44.0613 15.998 45.0133 14.234C45.9653 12.442 47.2673 11.056 48.9193 10.076C50.5993 9.096 52.4613 8.606 54.5053 8.606C56.5213 8.606 58.2713 9.04 59.7553 9.908C61.2393 10.776 62.3453 11.868 63.0733 13.184V8.984H66.9373V32H63.0733V27.716C62.3173 29.06 61.1833 30.18 59.6713 31.076C58.1873 31.944 56.4513 32.378 54.4633 32.378C52.4193 32.378 50.5713 31.874 48.9193 30.866C47.2673 29.858 45.9653 28.444 45.0133 26.624C44.0613 24.804 43.5853 22.732 43.5853 20.408ZM63.0733 20.45C63.0733 18.714 62.7233 17.202 62.0233 15.914C61.3233 14.626 60.3713 13.646 59.1673 12.974C57.9913 12.274 56.6893 11.924 55.2613 11.924C53.8333 11.924 52.5313 12.26 51.3553 12.932C50.1793 13.604 49.2413 14.584 48.5413 15.872C47.8413 17.16 47.4913 18.672 47.4913 20.408C47.4913 22.172 47.8413 23.712 48.5413 25.028C49.2413 26.316 50.1793 27.31 51.3553 28.01C52.5313 28.682 53.8333 29.018 55.2613 29.018C56.6893 29.018 57.9913 28.682 59.1673 28.01C60.3713 27.31 61.3233 26.316 62.0233 25.028C62.7233 23.712 63.0733 22.186 63.0733 20.45ZM81.5441 32.378C79.7801 32.378 78.1981 32.084 76.7981 31.496C75.3981 30.88 74.2921 30.04 73.4801 28.976C72.6681 27.884 72.2201 26.638 72.1361 25.238H76.0841C76.1961 26.386 76.7281 27.324 77.6801 28.052C78.6601 28.78 79.9341 29.144 81.5021 29.144C82.9581 29.144 84.1061 28.822 84.9461 28.178C85.7861 27.534 86.2061 26.722 86.2061 25.742C86.2061 24.734 85.7581 23.992 84.8621 23.516C83.9661 23.012 82.5801 22.522 80.7041 22.046C78.9961 21.598 77.5961 21.15 76.5041 20.702C75.4401 20.226 74.5161 19.54 73.7321 18.644C72.9761 17.72 72.5981 16.516 72.5981 15.032C72.5981 13.856 72.9481 12.778 73.6481 11.798C74.3481 10.818 75.3421 10.048 76.6301 9.488C77.9181 8.9 79.3881 8.606 81.0401 8.606C83.5881 8.606 85.6461 9.25 87.2141 10.538C88.7821 11.826 89.6221 13.59 89.7341 15.83H85.9121C85.8281 14.626 85.3381 13.66 84.4421 12.932C83.5741 12.204 82.3981 11.84 80.9141 11.84C79.5421 11.84 78.4501 12.134 77.6381 12.722C76.8261 13.31 76.4201 14.08 76.4201 15.032C76.4201 15.788 76.6581 16.418 77.1341 16.922C77.6381 17.398 78.2541 17.79 78.9821 18.098C79.7381 18.378 80.7741 18.7 82.0901 19.064C83.7421 19.512 85.0861 19.96 86.1221 20.408C87.1581 20.828 88.0401 21.472 88.7681 22.34C89.5241 23.208 89.9161 24.342 89.9441 25.742C89.9441 27.002 89.5941 28.136 88.8941 29.144C88.1941 30.152 87.2001 30.95 85.9121 31.538C84.6521 32.098 83.1961 32.378 81.5441 32.378ZM103.487 32.378C101.723 32.378 100.141 32.084 98.7415 31.496C97.3415 30.88 96.2355 30.04 95.4235 28.976C94.6115 27.884 94.1635 26.638 94.0795 25.238H98.0275C98.1395 26.386 98.6715 27.324 99.6235 28.052C100.603 28.78 101.877 29.144 103.445 29.144C104.901 29.144 106.049 28.822 106.889 28.178C107.729 27.534 108.149 26.722 108.149 25.742C108.149 24.734 107.701 23.992 106.805 23.516C105.909 23.012 104.523 22.522 102.647 22.046C100.939 21.598 99.5395 21.15 98.4475 20.702C97.3835 20.226 96.4595 19.54 95.6755 18.644C94.9195 17.72 94.5415 16.516 94.5415 15.032C94.5415 13.856 94.8915 12.778 95.5915 11.798C96.2915 10.818 97.2855 10.048 98.5735 9.488C99.8615 8.9 101.331 8.606 102.983 8.606C105.531 8.606 107.589 9.25 109.157 10.538C110.725 11.826 111.565 13.59 111.677 15.83H107.855C107.771 14.626 107.281 13.66 106.385 12.932C105.517 12.204 104.341 11.84 102.857 11.84C101.485 11.84 100.393 12.134 99.5815 12.722C98.7695 13.31 98.3635 14.08 98.3635 15.032C98.3635 15.788 98.6015 16.418 99.0775 16.922C99.5815 17.398 100.197 17.79 100.925 18.098C101.681 18.378 102.717 18.7 104.033 19.064C105.685 19.512 107.029 19.96 108.065 20.408C109.101 20.828 109.983 21.472 110.711 22.34C111.467 23.208 111.859 24.342 111.887 25.742C111.887 27.002 111.537 28.136 110.837 29.144C110.137 30.152 109.143 30.95 107.855 31.538C106.595 32.098 105.139 32.378 103.487 32.378Z" fill="#004BA3"/>
<path d="M152.672 2.726L141.626 32H137.216L126.17 2.726H130.244L139.442 27.968L148.64 2.726H152.672ZM177.863 19.61C177.863 20.338 177.821 21.108 177.737 21.92H159.341C159.481 24.188 160.251 25.966 161.651 27.254C163.079 28.514 164.801 29.144 166.817 29.144C168.469 29.144 169.841 28.766 170.933 28.01C172.053 27.226 172.837 26.19 173.285 24.902H177.401C176.785 27.114 175.553 28.92 173.705 30.32C171.857 31.692 169.561 32.378 166.817 32.378C164.633 32.378 162.673 31.888 160.937 30.908C159.229 29.928 157.885 28.542 156.905 26.75C155.925 24.93 155.435 22.83 155.435 20.45C155.435 18.07 155.911 15.984 156.863 14.192C157.815 12.4 159.145 11.028 160.853 10.076C162.589 9.096 164.577 8.606 166.817 8.606C169.001 8.606 170.933 9.082 172.613 10.034C174.293 10.986 175.581 12.302 176.477 13.982C177.401 15.634 177.863 17.51 177.863 19.61ZM173.915 18.812C173.915 17.356 173.593 16.11 172.949 15.074C172.305 14.01 171.423 13.212 170.303 12.68C169.211 12.12 167.993 11.84 166.649 11.84C164.717 11.84 163.065 12.456 161.693 13.688C160.349 14.92 159.579 16.628 159.383 18.812H173.915ZM194.332 8.564C196.068 8.564 197.636 8.942 199.036 9.698C200.436 10.426 201.528 11.532 202.312 13.016C203.124 14.5 203.53 16.306 203.53 18.434V32H199.75V18.98C199.75 16.684 199.176 14.934 198.028 13.73C196.88 12.498 195.312 11.882 193.324 11.882C191.308 11.882 189.698 12.512 188.494 13.772C187.318 15.032 186.73 16.866 186.73 19.274V32H182.908V0.92H186.73V12.26C187.486 11.084 188.522 10.174 189.838 9.53C191.182 8.886 192.68 8.564 194.332 8.564ZM211.747 5.246C211.019 5.246 210.403 4.994 209.899 4.49C209.395 3.986 209.143 3.37 209.143 2.642C209.143 1.914 209.395 1.298 209.899 0.793999C210.403 0.289999 211.019 0.0379984 211.747 0.0379984C212.447 0.0379984 213.035 0.289999 213.511 0.793999C214.015 1.298 214.267 1.914 214.267 2.642C214.267 3.37 214.015 3.986 213.511 4.49C213.035 4.994 212.447 5.246 211.747 5.246ZM213.595 8.984V32H209.773V8.984H213.595ZM218.681 20.45C218.681 18.07 219.157 15.998 220.109 14.234C221.061 12.442 222.377 11.056 224.057 10.076C225.765 9.096 227.711 8.606 229.895 8.606C232.723 8.606 235.047 9.292 236.867 10.664C238.715 12.036 239.933 13.94 240.521 16.376H236.405C236.013 14.976 235.243 13.87 234.095 13.058C232.975 12.246 231.575 11.84 229.895 11.84C227.711 11.84 225.947 12.596 224.603 14.108C223.259 15.592 222.587 17.706 222.587 20.45C222.587 23.222 223.259 25.364 224.603 26.876C225.947 28.388 227.711 29.144 229.895 29.144C231.575 29.144 232.975 28.752 234.095 27.968C235.215 27.184 235.985 26.064 236.405 24.608H240.521C239.905 26.96 238.673 28.85 236.825 30.278C234.977 31.678 232.667 32.378 229.895 32.378C227.711 32.378 225.765 31.888 224.057 30.908C222.377 29.928 221.061 28.542 220.109 26.75C219.157 24.958 218.681 22.858 218.681 20.45ZM266.033 8.984V32H262.211V28.598C261.483 29.774 260.461 30.698 259.145 31.37C257.857 32.014 256.429 32.336 254.861 32.336C253.069 32.336 251.459 31.972 250.031 31.244C248.603 30.488 247.469 29.368 246.629 27.884C245.817 26.4 245.411 24.594 245.411 22.466V8.984H249.191V21.962C249.191 24.23 249.765 25.98 250.913 27.212C252.061 28.416 253.629 29.018 255.617 29.018C257.661 29.018 259.271 28.388 260.447 27.128C261.623 25.868 262.211 24.034 262.211 21.626V8.984H266.033ZM276.308 0.92V32H272.486V0.92H276.308ZM303.822 19.61C303.822 20.338 303.78 21.108 303.696 21.92H285.3C285.44 24.188 286.21 25.966 287.61 27.254C289.038 28.514 290.76 29.144 292.776 29.144C294.428 29.144 295.8 28.766 296.892 28.01C298.012 27.226 298.796 26.19 299.244 24.902H303.36C302.744 27.114 301.512 28.92 299.664 30.32C297.816 31.692 295.52 32.378 292.776 32.378C290.592 32.378 288.632 31.888 286.896 30.908C285.188 29.928 283.844 28.542 282.864 26.75C281.884 24.93 281.394 22.83 281.394 20.45C281.394 18.07 281.87 15.984 282.822 14.192C283.774 12.4 285.104 11.028 286.812 10.076C288.548 9.096 290.536 8.606 292.776 8.606C294.96 8.606 296.892 9.082 298.572 10.034C300.252 10.986 301.54 12.302 302.436 13.982C303.36 15.634 303.822 17.51 303.822 19.61ZM299.874 18.812C299.874 17.356 299.552 16.11 298.908 15.074C298.264 14.01 297.382 13.212 296.262 12.68C295.17 12.12 293.952 11.84 292.608 11.84C290.676 11.84 289.024 12.456 287.652 13.688C286.308 14.92 285.538 16.628 285.342 18.812H299.874Z" fill="black"/>
</svg>
