<svg width="330" height="254" viewBox="0 0 330 254" fill="none" xmlns="http://www.w3.org/2000/svg">
<path d="M105.224 15.088V40H101.948V21.424L93.668 40H91.364L83.048 21.388V40H79.772V15.088H83.3L92.516 35.68L101.732 15.088H105.224ZM128.78 29.38C128.78 30.004 128.744 30.664 128.672 31.36H112.904C113.024 33.304 113.684 34.828 114.884 35.932C116.108 37.012 117.584 37.552 119.312 37.552C120.728 37.552 121.904 37.228 122.84 36.58C123.8 35.908 124.472 35.02 124.856 33.916H128.384C127.856 35.812 126.8 37.36 125.216 38.56C123.632 39.736 121.664 40.324 119.312 40.324C117.44 40.324 115.76 39.904 114.272 39.064C112.808 38.224 111.656 37.036 110.816 35.5C109.976 33.94 109.556 32.14 109.556 30.1C109.556 28.06 109.964 26.272 110.78 24.736C111.596 23.2 112.736 22.024 114.2 21.208C115.688 20.368 117.392 19.948 119.312 19.948C121.184 19.948 122.84 20.356 124.28 21.172C125.72 21.988 126.824 23.116 127.592 24.556C128.384 25.972 128.78 27.58 128.78 29.38ZM125.396 28.696C125.396 27.448 125.12 26.38 124.568 25.492C124.016 24.58 123.26 23.896 122.3 23.44C121.364 22.96 120.32 22.72 119.168 22.72C117.512 22.72 116.096 23.248 114.92 24.304C113.768 25.36 113.108 26.824 112.94 28.696H125.396ZM137.1 22.972V34.6C137.1 35.56 137.304 36.244 137.712 36.652C138.12 37.036 138.828 37.228 139.836 37.228H142.248V40H139.296C137.472 40 136.104 39.58 135.192 38.74C134.28 37.9 133.824 36.52 133.824 34.6V22.972H131.268V20.272H133.824V15.304H137.1V20.272H142.248V22.972H137.1ZM156.009 19.912C157.497 19.912 158.841 20.236 160.041 20.884C161.241 21.508 162.177 22.456 162.849 23.728C163.545 25 163.893 26.548 163.893 28.372V40H160.653V28.84C160.653 26.872 160.161 25.372 159.177 24.34C158.193 23.284 156.849 22.756 155.145 22.756C153.417 22.756 152.037 23.296 151.005 24.376C149.997 25.456 149.493 27.028 149.493 29.092V40H146.217V13.36H149.493V23.08C150.141 22.072 151.029 21.292 152.157 20.74C153.309 20.188 154.593 19.912 156.009 19.912ZM177.849 40.324C176.001 40.324 174.321 39.904 172.809 39.064C171.321 38.224 170.145 37.036 169.281 35.5C168.441 33.94 168.021 32.14 168.021 30.1C168.021 28.084 168.453 26.308 169.317 24.772C170.205 23.212 171.405 22.024 172.917 21.208C174.429 20.368 176.121 19.948 177.993 19.948C179.865 19.948 181.557 20.368 183.069 21.208C184.581 22.024 185.769 23.2 186.633 24.736C187.521 26.272 187.965 28.06 187.965 30.1C187.965 32.14 187.509 33.94 186.597 35.5C185.709 37.036 184.497 38.224 182.961 39.064C181.425 39.904 179.721 40.324 177.849 40.324ZM177.849 37.444C179.025 37.444 180.129 37.168 181.161 36.616C182.193 36.064 183.021 35.236 183.645 34.132C184.293 33.028 184.617 31.684 184.617 30.1C184.617 28.516 184.305 27.172 183.681 26.068C183.057 24.964 182.241 24.148 181.233 23.62C180.225 23.068 179.133 22.792 177.957 22.792C176.757 22.792 175.653 23.068 174.645 23.62C173.661 24.148 172.869 24.964 172.269 26.068C171.669 27.172 171.369 28.516 171.369 30.1C171.369 31.708 171.657 33.064 172.233 34.168C172.833 35.272 173.625 36.1 174.609 36.652C175.593 37.18 176.673 37.444 177.849 37.444ZM191.048 30.064C191.048 28.048 191.456 26.284 192.272 24.772C193.088 23.236 194.204 22.048 195.62 21.208C197.06 20.368 198.668 19.948 200.444 19.948C201.98 19.948 203.408 20.308 204.728 21.028C206.048 21.724 207.056 22.648 207.752 23.8V13.36H211.064V40H207.752V36.292C207.104 37.468 206.144 38.44 204.872 39.208C203.6 39.952 202.112 40.324 200.408 40.324C198.656 40.324 197.06 39.892 195.62 39.028C194.204 38.164 193.088 36.952 192.272 35.392C191.456 33.832 191.048 32.056 191.048 30.064ZM207.752 30.1C207.752 28.612 207.452 27.316 206.852 26.212C206.252 25.108 205.436 24.268 204.404 23.692C203.396 23.092 202.28 22.792 201.056 22.792C199.832 22.792 198.716 23.08 197.708 23.656C196.7 24.232 195.896 25.072 195.296 26.176C194.696 27.28 194.396 28.576 194.396 30.064C194.396 31.576 194.696 32.896 195.296 34.024C195.896 35.128 196.7 35.98 197.708 36.58C198.716 37.156 199.832 37.444 201.056 37.444C202.28 37.444 203.396 37.156 204.404 36.58C205.436 35.98 206.252 35.128 206.852 34.024C207.452 32.896 207.752 31.588 207.752 30.1ZM223.584 40.324C222.072 40.324 220.716 40.072 219.516 39.568C218.316 39.04 217.368 38.32 216.672 37.408C215.976 36.472 215.592 35.404 215.52 34.204H218.904C219 35.188 219.456 35.992 220.272 36.616C221.112 37.24 222.204 37.552 223.548 37.552C224.796 37.552 225.78 37.276 226.5 36.724C227.22 36.172 227.58 35.476 227.58 34.636C227.58 33.772 227.196 33.136 226.428 32.728C225.66 32.296 224.472 31.876 222.864 31.468C221.4 31.084 220.2 30.7 219.264 30.316C218.352 29.908 217.56 29.32 216.888 28.552C216.24 27.76 215.916 26.728 215.916 25.456C215.916 24.448 216.216 23.524 216.816 22.684C217.416 21.844 218.268 21.184 219.372 20.704C220.476 20.2 221.736 19.948 223.152 19.948C225.336 19.948 227.1 20.5 228.444 21.604C229.788 22.708 230.508 24.22 230.604 26.14H227.328C227.256 25.108 226.836 24.28 226.068 23.656C225.324 23.032 224.316 22.72 223.044 22.72C221.868 22.72 220.932 22.972 220.236 23.476C219.54 23.98 219.192 24.64 219.192 25.456C219.192 26.104 219.396 26.644 219.804 27.076C220.236 27.484 220.764 27.82 221.388 28.084C222.036 28.324 222.924 28.6 224.052 28.912C225.468 29.296 226.62 29.68 227.508 30.064C228.396 30.424 229.152 30.976 229.776 31.72C230.424 32.464 230.76 33.436 230.784 34.636C230.784 35.716 230.484 36.688 229.884 37.552C229.284 38.416 228.432 39.1 227.328 39.604C226.248 40.084 225 40.324 223.584 40.324Z" fill="black"/>
<path d="M26.512 74.648V82.4C26.512 83.04 26.648 83.496 26.92 83.768C27.192 84.024 27.664 84.152 28.336 84.152H29.944V86H27.976C26.76 86 25.848 85.72 25.24 85.16C24.632 84.6 24.328 83.68 24.328 82.4V74.648H22.624V72.848H24.328V69.536H26.512V72.848H29.944V74.648H26.512ZM44.2542 72.848V86H42.0702V84.056C41.6542 84.728 41.0702 85.256 40.3182 85.64C39.5822 86.008 38.7662 86.192 37.8702 86.192C36.8462 86.192 35.9262 85.984 35.1102 85.568C34.2942 85.136 33.6462 84.496 33.1662 83.648C32.7022 82.8 32.4702 81.768 32.4702 80.552V72.848H34.6302V80.264C34.6302 81.56 34.9582 82.56 35.6142 83.264C36.2702 83.952 37.1662 84.296 38.3022 84.296C39.4702 84.296 40.3902 83.936 41.0622 83.216C41.7342 82.496 42.0702 81.448 42.0702 80.072V72.848H44.2542ZM50.1258 74.984C50.5098 74.232 51.0538 73.648 51.7578 73.232C52.4778 72.816 53.3498 72.608 54.3738 72.608V74.864H53.7978C51.3498 74.864 50.1258 76.192 50.1258 78.848V86H47.9418V72.848H50.1258V74.984ZM63.3029 72.608C64.9029 72.608 66.1989 73.096 67.1909 74.072C68.1829 75.032 68.6789 76.424 68.6789 78.248V86H66.5189V78.56C66.5189 77.248 66.1909 76.248 65.5349 75.56C64.8789 74.856 63.9829 74.504 62.8469 74.504C61.6949 74.504 60.7749 74.864 60.0869 75.584C59.4149 76.304 59.0789 77.352 59.0789 78.728V86H56.8949V72.848H59.0789V74.72C59.5109 74.048 60.0949 73.528 60.8309 73.16C61.5829 72.792 62.4069 72.608 63.3029 72.608ZM85.6864 86.912V88.928H72.9184V86.912H85.6864ZM95.584 86.216C94.352 86.216 93.232 85.936 92.224 85.376C91.232 84.816 90.448 84.024 89.872 83C89.312 81.96 89.032 80.76 89.032 79.4C89.032 78.056 89.32 76.872 89.896 75.848C90.488 74.808 91.288 74.016 92.296 73.472C93.304 72.912 94.432 72.632 95.68 72.632C96.928 72.632 98.056 72.912 99.064 73.472C100.072 74.016 100.864 74.8 101.44 75.824C102.032 76.848 102.328 78.04 102.328 79.4C102.328 80.76 102.024 81.96 101.416 83C100.824 84.024 100.016 84.816 98.992 85.376C97.968 85.936 96.832 86.216 95.584 86.216ZM95.584 84.296C96.368 84.296 97.104 84.112 97.792 83.744C98.48 83.376 99.032 82.824 99.448 82.088C99.88 81.352 100.096 80.456 100.096 79.4C100.096 78.344 99.888 77.448 99.472 76.712C99.056 75.976 98.512 75.432 97.84 75.08C97.168 74.712 96.44 74.528 95.656 74.528C94.856 74.528 94.12 74.712 93.448 75.08C92.792 75.432 92.264 75.976 91.864 76.712C91.464 77.448 91.264 78.344 91.264 79.4C91.264 80.472 91.456 81.376 91.84 82.112C92.24 82.848 92.768 83.4 93.424 83.768C94.08 84.12 94.8 84.296 95.584 84.296ZM111.608 72.608C113.208 72.608 114.504 73.096 115.496 74.072C116.488 75.032 116.984 76.424 116.984 78.248V86H114.824V78.56C114.824 77.248 114.496 76.248 113.84 75.56C113.184 74.856 112.288 74.504 111.152 74.504C110 74.504 109.08 74.864 108.392 75.584C107.72 76.304 107.384 77.352 107.384 78.728V86H105.2V72.848H107.384V74.72C107.816 74.048 108.4 73.528 109.136 73.16C109.888 72.792 110.712 72.608 111.608 72.608ZM126.167 90.464C124.631 88.96 123.431 87.048 122.567 84.728C121.719 82.408 121.295 79.904 121.295 77.216C121.295 74.464 121.743 71.896 122.639 69.512C123.551 67.112 124.847 65.136 126.527 63.584H128.807V63.8C127.015 65.48 125.663 67.504 124.751 69.872C123.855 72.224 123.407 74.672 123.407 77.216C123.407 79.696 123.831 82.064 124.679 84.32C125.543 86.576 126.799 88.552 128.447 90.248V90.464H126.167ZM130.754 90.464V90.248C132.402 88.552 133.65 86.576 134.498 84.32C135.362 82.064 135.794 79.696 135.794 77.216C135.794 74.672 135.338 72.224 134.426 69.872C133.53 67.504 132.186 65.48 130.394 63.8V63.584H132.674C134.354 65.136 135.642 67.112 136.538 69.512C137.45 71.896 137.906 74.464 137.906 77.216C137.906 79.904 137.474 82.408 136.61 84.728C135.762 87.048 134.57 88.96 133.034 90.464H130.754ZM143.044 86.144C142.628 86.144 142.276 86 141.988 85.712C141.7 85.424 141.556 85.072 141.556 84.656C141.556 84.24 141.7 83.888 141.988 83.6C142.276 83.312 142.628 83.168 143.044 83.168C143.444 83.168 143.78 83.312 144.052 83.6C144.34 83.888 144.484 84.24 144.484 84.656C144.484 85.072 144.34 85.424 144.052 85.712C143.78 86 143.444 86.144 143.044 86.144ZM143.044 75.872C142.628 75.872 142.276 75.728 141.988 75.44C141.7 75.152 141.556 74.8 141.556 74.384C141.556 73.968 141.7 73.616 141.988 73.328C142.276 73.04 142.628 72.896 143.044 72.896C143.444 72.896 143.78 73.04 144.052 73.328C144.34 73.616 144.484 73.968 144.484 74.384C144.484 74.8 144.34 75.152 144.052 75.44C143.78 75.728 143.444 75.872 143.044 75.872Z" fill="#004BA3"/>
<path d="M149.641 75.296C150.089 74.512 150.745 73.872 151.609 73.376C152.473 72.88 153.457 72.632 154.561 72.632C155.745 72.632 156.809 72.912 157.753 73.472C158.697 74.032 159.441 74.824 159.985 75.848C160.529 76.856 160.801 78.032 160.801 79.376C160.801 80.704 160.529 81.888 159.985 82.928C159.441 83.968 158.689 84.776 157.729 85.352C156.785 85.928 155.729 86.216 154.561 86.216C153.425 86.216 152.425 85.968 151.561 85.472C150.713 84.976 150.073 84.344 149.641 83.576V86H147.457V68.24H149.641V75.296ZM158.569 79.376C158.569 78.384 158.369 77.52 157.969 76.784C157.569 76.048 157.025 75.488 156.337 75.104C155.665 74.72 154.921 74.528 154.105 74.528C153.305 74.528 152.561 74.728 151.873 75.128C151.201 75.512 150.657 76.08 150.241 76.832C149.841 77.568 149.641 78.424 149.641 79.4C149.641 80.392 149.841 81.264 150.241 82.016C150.657 82.752 151.201 83.32 151.873 83.72C152.561 84.104 153.305 84.296 154.105 84.296C154.921 84.296 155.665 84.104 156.337 83.72C157.025 83.32 157.569 82.752 157.969 82.016C158.369 81.264 158.569 80.384 158.569 79.376ZM169.412 86.216C168.18 86.216 167.06 85.936 166.052 85.376C165.06 84.816 164.276 84.024 163.7 83C163.14 81.96 162.86 80.76 162.86 79.4C162.86 78.056 163.148 76.872 163.724 75.848C164.316 74.808 165.116 74.016 166.124 73.472C167.132 72.912 168.26 72.632 169.508 72.632C170.756 72.632 171.884 72.912 172.892 73.472C173.9 74.016 174.692 74.8 175.268 75.824C175.86 76.848 176.156 78.04 176.156 79.4C176.156 80.76 175.852 81.96 175.244 83C174.652 84.024 173.844 84.816 172.82 85.376C171.796 85.936 170.66 86.216 169.412 86.216ZM169.412 84.296C170.196 84.296 170.932 84.112 171.62 83.744C172.308 83.376 172.86 82.824 173.276 82.088C173.708 81.352 173.924 80.456 173.924 79.4C173.924 78.344 173.716 77.448 173.3 76.712C172.884 75.976 172.34 75.432 171.668 75.08C170.996 74.712 170.268 74.528 169.484 74.528C168.684 74.528 167.948 74.712 167.276 75.08C166.62 75.432 166.092 75.976 165.692 76.712C165.292 77.448 165.092 78.344 165.092 79.4C165.092 80.472 165.284 81.376 165.668 82.112C166.068 82.848 166.596 83.4 167.252 83.768C167.908 84.12 168.628 84.296 169.412 84.296ZM184.764 86.216C183.532 86.216 182.412 85.936 181.404 85.376C180.412 84.816 179.628 84.024 179.052 83C178.492 81.96 178.212 80.76 178.212 79.4C178.212 78.056 178.5 76.872 179.076 75.848C179.668 74.808 180.468 74.016 181.476 73.472C182.484 72.912 183.612 72.632 184.86 72.632C186.108 72.632 187.236 72.912 188.244 73.472C189.252 74.016 190.044 74.8 190.62 75.824C191.212 76.848 191.508 78.04 191.508 79.4C191.508 80.76 191.204 81.96 190.596 83C190.004 84.024 189.196 84.816 188.172 85.376C187.148 85.936 186.012 86.216 184.764 86.216ZM184.764 84.296C185.548 84.296 186.284 84.112 186.972 83.744C187.66 83.376 188.212 82.824 188.628 82.088C189.06 81.352 189.276 80.456 189.276 79.4C189.276 78.344 189.068 77.448 188.652 76.712C188.236 75.976 187.692 75.432 187.02 75.08C186.348 74.712 185.62 74.528 184.836 74.528C184.036 74.528 183.3 74.712 182.628 75.08C181.972 75.432 181.444 75.976 181.044 76.712C180.644 77.448 180.444 78.344 180.444 79.4C180.444 80.472 180.636 81.376 181.02 82.112C181.42 82.848 181.948 83.4 182.604 83.768C183.26 84.12 183.98 84.296 184.764 84.296ZM196.563 68.24V86H194.379V68.24H196.563Z" fill="black"/>
<path d="M14.328 78.152H9.216V83.336H7.176V78.152H2.088V76.304H7.176V71.096H9.216V76.304H14.328V78.152Z" fill="black"/>
<path d="M26.032 115.984C26.416 115.232 26.96 114.648 27.664 114.232C28.384 113.816 29.256 113.608 30.28 113.608V115.864H29.704C27.256 115.864 26.032 117.192 26.032 119.848V127H23.848V113.848H26.032V115.984ZM44.4651 113.848V127H42.2811V125.056C41.8651 125.728 41.2811 126.256 40.5291 126.64C39.7931 127.008 38.9771 127.192 38.0811 127.192C37.0571 127.192 36.1371 126.984 35.3211 126.568C34.5051 126.136 33.8571 125.496 33.3771 124.648C32.9131 123.8 32.6811 122.768 32.6811 121.552V113.848H34.8411V121.264C34.8411 122.56 35.1691 123.56 35.8251 124.264C36.4811 124.952 37.3771 125.296 38.5131 125.296C39.6811 125.296 40.6011 124.936 41.2731 124.216C41.9451 123.496 42.2811 122.448 42.2811 121.072V113.848H44.4651ZM54.5607 113.608C56.1607 113.608 57.4567 114.096 58.4487 115.072C59.4407 116.032 59.9367 117.424 59.9367 119.248V127H57.7767V119.56C57.7767 118.248 57.4487 117.248 56.7927 116.56C56.1367 115.856 55.2407 115.504 54.1047 115.504C52.9527 115.504 52.0327 115.864 51.3447 116.584C50.6727 117.304 50.3367 118.352 50.3367 119.728V127H48.1527V113.848H50.3367V115.72C50.7687 115.048 51.3527 114.528 52.0887 114.16C52.8407 113.792 53.6647 113.608 54.5607 113.608ZM69.1203 131.464C67.5843 129.96 66.3843 128.048 65.5203 125.728C64.6723 123.408 64.2483 120.904 64.2483 118.216C64.2483 115.464 64.6963 112.896 65.5923 110.512C66.5043 108.112 67.8003 106.136 69.4803 104.584H71.7603V104.8C69.9683 106.48 68.6163 108.504 67.7043 110.872C66.8083 113.224 66.3603 115.672 66.3603 118.216C66.3603 120.696 66.7843 123.064 67.6323 125.32C68.4963 127.576 69.7523 129.552 71.4003 131.248V131.464H69.1203ZM73.7067 131.464V131.248C75.3547 129.552 76.6027 127.576 77.4507 125.32C78.3147 123.064 78.7467 120.696 78.7467 118.216C78.7467 115.672 78.2907 113.224 77.3787 110.872C76.4827 108.504 75.1387 106.48 73.3467 104.8V104.584H75.6267C77.3067 106.136 78.5947 108.112 79.4907 110.512C80.4027 112.896 80.8587 115.464 80.8587 118.216C80.8587 120.904 80.4267 123.408 79.5627 125.728C78.7147 128.048 77.5227 129.96 75.9867 131.464H73.7067ZM85.9971 127.144C85.5811 127.144 85.2291 127 84.9411 126.712C84.6531 126.424 84.5091 126.072 84.5091 125.656C84.5091 125.24 84.6531 124.888 84.9411 124.6C85.2291 124.312 85.5811 124.168 85.9971 124.168C86.3971 124.168 86.7331 124.312 87.0051 124.6C87.2931 124.888 87.4371 125.24 87.4371 125.656C87.4371 126.072 87.2931 126.424 87.0051 126.712C86.7331 127 86.3971 127.144 85.9971 127.144ZM85.9971 116.872C85.5811 116.872 85.2291 116.728 84.9411 116.44C84.6531 116.152 84.5091 115.8 84.5091 115.384C84.5091 114.968 84.6531 114.616 84.9411 114.328C85.2291 114.04 85.5811 113.896 85.9971 113.896C86.3971 113.896 86.7331 114.04 87.0051 114.328C87.2931 114.616 87.4371 114.968 87.4371 115.384C87.4371 115.8 87.2931 116.152 87.0051 116.44C86.7331 116.728 86.3971 116.872 85.9971 116.872Z" fill="#004BA3"/>
<path d="M95.7625 115.648H93.0025V127H90.8185V115.648H89.1145V113.848H90.8185V112.912C90.8185 111.44 91.1945 110.368 91.9465 109.696C92.7145 109.008 93.9385 108.664 95.6185 108.664V110.488C94.6585 110.488 93.9785 110.68 93.5785 111.064C93.1945 111.432 93.0025 112.048 93.0025 112.912V113.848H95.7625V115.648ZM109.973 113.848V127H107.789V125.056C107.373 125.728 106.789 126.256 106.037 126.64C105.301 127.008 104.485 127.192 103.589 127.192C102.565 127.192 101.645 126.984 100.829 126.568C100.013 126.136 99.3649 125.496 98.8849 124.648C98.4209 123.8 98.1889 122.768 98.1889 121.552V113.848H100.349V121.264C100.349 122.56 100.677 123.56 101.333 124.264C101.989 124.952 102.885 125.296 104.021 125.296C105.189 125.296 106.109 124.936 106.781 124.216C107.453 123.496 107.789 122.448 107.789 121.072V113.848H109.973ZM120.069 113.608C121.669 113.608 122.965 114.096 123.957 115.072C124.949 116.032 125.445 117.424 125.445 119.248V127H123.285V119.56C123.285 118.248 122.957 117.248 122.301 116.56C121.645 115.856 120.749 115.504 119.613 115.504C118.461 115.504 117.541 115.864 116.853 116.584C116.181 117.304 115.845 118.352 115.845 119.728V127H113.661V113.848H115.845V115.72C116.277 115.048 116.861 114.528 117.597 114.16C118.349 113.792 119.173 113.608 120.069 113.608ZM128.196 120.4C128.196 119.04 128.468 117.856 129.012 116.848C129.556 115.824 130.308 115.032 131.268 114.472C132.244 113.912 133.356 113.632 134.604 113.632C136.22 113.632 137.548 114.024 138.588 114.808C139.644 115.592 140.34 116.68 140.676 118.072H138.324C138.1 117.272 137.66 116.64 137.004 116.176C136.364 115.712 135.564 115.48 134.604 115.48C133.356 115.48 132.348 115.912 131.58 116.776C130.812 117.624 130.428 118.832 130.428 120.4C130.428 121.984 130.812 123.208 131.58 124.072C132.348 124.936 133.356 125.368 134.604 125.368C135.564 125.368 136.364 125.144 137.004 124.696C137.644 124.248 138.084 123.608 138.324 122.776H140.676C140.324 124.12 139.62 125.2 138.564 126.016C137.508 126.816 136.188 127.216 134.604 127.216C133.356 127.216 132.244 126.936 131.268 126.376C130.308 125.816 129.556 125.024 129.012 124C128.468 122.976 128.196 121.776 128.196 120.4ZM146.254 115.648V123.4C146.254 124.04 146.39 124.496 146.662 124.768C146.934 125.024 147.406 125.152 148.078 125.152H149.686V127H147.718C146.502 127 145.59 126.72 144.982 126.16C144.374 125.6 144.07 124.68 144.07 123.4V115.648H142.366V113.848H144.07V110.536H146.254V113.848H149.686V115.648H146.254ZM153.46 111.712C153.044 111.712 152.692 111.568 152.404 111.28C152.116 110.992 151.972 110.64 151.972 110.224C151.972 109.808 152.116 109.456 152.404 109.168C152.692 108.88 153.044 108.736 153.46 108.736C153.86 108.736 154.196 108.88 154.468 109.168C154.756 109.456 154.9 109.808 154.9 110.224C154.9 110.64 154.756 110.992 154.468 111.28C154.196 111.568 153.86 111.712 153.46 111.712ZM154.516 113.848V127H152.332V113.848H154.516ZM163.975 127.216C162.743 127.216 161.623 126.936 160.615 126.376C159.623 125.816 158.839 125.024 158.263 124C157.703 122.96 157.423 121.76 157.423 120.4C157.423 119.056 157.711 117.872 158.287 116.848C158.879 115.808 159.679 115.016 160.687 114.472C161.695 113.912 162.823 113.632 164.071 113.632C165.319 113.632 166.447 113.912 167.455 114.472C168.463 115.016 169.255 115.8 169.831 116.824C170.423 117.848 170.719 119.04 170.719 120.4C170.719 121.76 170.415 122.96 169.807 124C169.215 125.024 168.407 125.816 167.383 126.376C166.359 126.936 165.223 127.216 163.975 127.216ZM163.975 125.296C164.759 125.296 165.495 125.112 166.183 124.744C166.871 124.376 167.423 123.824 167.839 123.088C168.271 122.352 168.487 121.456 168.487 120.4C168.487 119.344 168.279 118.448 167.863 117.712C167.447 116.976 166.903 116.432 166.231 116.08C165.559 115.712 164.831 115.528 164.047 115.528C163.247 115.528 162.511 115.712 161.839 116.08C161.183 116.432 160.655 116.976 160.255 117.712C159.855 118.448 159.655 119.344 159.655 120.4C159.655 121.472 159.847 122.376 160.231 123.112C160.631 123.848 161.159 124.4 161.815 124.768C162.471 125.12 163.191 125.296 163.975 125.296ZM179.998 113.608C181.598 113.608 182.894 114.096 183.886 115.072C184.878 116.032 185.374 117.424 185.374 119.248V127H183.214V119.56C183.214 118.248 182.886 117.248 182.23 116.56C181.574 115.856 180.678 115.504 179.542 115.504C178.39 115.504 177.47 115.864 176.782 116.584C176.11 117.304 175.774 118.352 175.774 119.728V127H173.59V113.848H175.774V115.72C176.206 115.048 176.79 114.528 177.526 114.16C178.278 113.792 179.102 113.608 179.998 113.608Z" fill="black"/>
<path d="M14.328 119.152H9.216V124.336H7.176V119.152H2.088V117.304H7.176V112.096H9.216V117.304H14.328V119.152Z" fill="black"/>
<path d="M28.504 166.216C27.496 166.216 26.592 166.048 25.792 165.712C24.992 165.36 24.36 164.88 23.896 164.272C23.432 163.648 23.176 162.936 23.128 162.136H25.384C25.448 162.792 25.752 163.328 26.296 163.744C26.856 164.16 27.584 164.368 28.48 164.368C29.312 164.368 29.968 164.184 30.448 163.816C30.928 163.448 31.168 162.984 31.168 162.424C31.168 161.848 30.912 161.424 30.4 161.152C29.888 160.864 29.096 160.584 28.024 160.312C27.048 160.056 26.248 159.8 25.624 159.544C25.016 159.272 24.488 158.88 24.04 158.368C23.608 157.84 23.392 157.152 23.392 156.304C23.392 155.632 23.592 155.016 23.992 154.456C24.392 153.896 24.96 153.456 25.696 153.136C26.432 152.8 27.272 152.632 28.216 152.632C29.672 152.632 30.848 153 31.744 153.736C32.64 154.472 33.12 155.48 33.184 156.76H31C30.952 156.072 30.672 155.52 30.16 155.104C29.664 154.688 28.992 154.48 28.144 154.48C27.36 154.48 26.736 154.648 26.272 154.984C25.808 155.32 25.576 155.76 25.576 156.304C25.576 156.736 25.712 157.096 25.984 157.384C26.272 157.656 26.624 157.88 27.04 158.056C27.472 158.216 28.064 158.4 28.816 158.608C29.76 158.864 30.528 159.12 31.12 159.376C31.712 159.616 32.216 159.984 32.632 160.48C33.064 160.976 33.288 161.624 33.304 162.424C33.304 163.144 33.104 163.792 32.704 164.368C32.304 164.944 31.736 165.4 31 165.736C30.28 166.056 29.448 166.216 28.504 166.216ZM39.0511 154.648V162.4C39.0511 163.04 39.1871 163.496 39.4591 163.768C39.7311 164.024 40.2031 164.152 40.8751 164.152H42.4831V166H40.5151C39.2991 166 38.3871 165.72 37.7791 165.16C37.1711 164.6 36.8671 163.68 36.8671 162.4V154.648H35.1631V152.848H36.8671V149.536H39.0511V152.848H42.4831V154.648H39.0511ZM50.8653 166.216C49.6333 166.216 48.5133 165.936 47.5053 165.376C46.5133 164.816 45.7293 164.024 45.1533 163C44.5933 161.96 44.3133 160.76 44.3133 159.4C44.3133 158.056 44.6013 156.872 45.1773 155.848C45.7693 154.808 46.5693 154.016 47.5773 153.472C48.5853 152.912 49.7133 152.632 50.9613 152.632C52.2093 152.632 53.3373 152.912 54.3453 153.472C55.3533 154.016 56.1453 154.8 56.7213 155.824C57.3133 156.848 57.6093 158.04 57.6093 159.4C57.6093 160.76 57.3053 161.96 56.6973 163C56.1053 164.024 55.2973 164.816 54.2733 165.376C53.2493 165.936 52.1133 166.216 50.8653 166.216ZM50.8653 164.296C51.6493 164.296 52.3853 164.112 53.0733 163.744C53.7613 163.376 54.3133 162.824 54.7293 162.088C55.1613 161.352 55.3773 160.456 55.3773 159.4C55.3773 158.344 55.1693 157.448 54.7533 156.712C54.3373 155.976 53.7933 155.432 53.1213 155.08C52.4493 154.712 51.7213 154.528 50.9373 154.528C50.1373 154.528 49.4013 154.712 48.7293 155.08C48.0733 155.432 47.5453 155.976 47.1453 156.712C46.7453 157.448 46.5453 158.344 46.5453 159.4C46.5453 160.472 46.7373 161.376 47.1213 162.112C47.5213 162.848 48.0493 163.4 48.7053 163.768C49.3613 164.12 50.0813 164.296 50.8653 164.296ZM62.6648 155.272C63.0968 154.52 63.7368 153.896 64.5848 153.4C65.4488 152.888 66.4488 152.632 67.5848 152.632C68.7528 152.632 69.8088 152.912 70.7528 153.472C71.7128 154.032 72.4648 154.824 73.0088 155.848C73.5528 156.856 73.8248 158.032 73.8248 159.376C73.8248 160.704 73.5528 161.888 73.0088 162.928C72.4648 163.968 71.7128 164.776 70.7528 165.352C69.8088 165.928 68.7528 166.216 67.5848 166.216C66.4648 166.216 65.4728 165.968 64.6088 165.472C63.7608 164.96 63.1128 164.328 62.6648 163.576V172.24H60.4808V152.848H62.6648V155.272ZM71.5928 159.376C71.5928 158.384 71.3928 157.52 70.9928 156.784C70.5928 156.048 70.0488 155.488 69.3608 155.104C68.6888 154.72 67.9448 154.528 67.1288 154.528C66.3288 154.528 65.5848 154.728 64.8968 155.128C64.2248 155.512 63.6808 156.08 63.2648 156.832C62.8648 157.568 62.6648 158.424 62.6648 159.4C62.6648 160.392 62.8648 161.264 63.2648 162.016C63.6808 162.752 64.2248 163.32 64.8968 163.72C65.5848 164.104 66.3288 164.296 67.1288 164.296C67.9448 164.296 68.6888 164.104 69.3608 163.72C70.0488 163.32 70.5928 162.752 70.9928 162.016C71.3928 161.264 71.5928 160.384 71.5928 159.376ZM82.3156 170.464C80.7796 168.96 79.5796 167.048 78.7156 164.728C77.8676 162.408 77.4436 159.904 77.4436 157.216C77.4436 154.464 77.8916 151.896 78.7876 149.512C79.6996 147.112 80.9956 145.136 82.6756 143.584H84.9556V143.8C83.1636 145.48 81.8116 147.504 80.8996 149.872C80.0036 152.224 79.5556 154.672 79.5556 157.216C79.5556 159.696 79.9796 162.064 80.8276 164.32C81.6916 166.576 82.9476 168.552 84.5956 170.248V170.464H82.3156ZM86.902 170.464V170.248C88.55 168.552 89.798 166.576 90.646 164.32C91.51 162.064 91.942 159.696 91.942 157.216C91.942 154.672 91.486 152.224 90.574 149.872C89.678 147.504 88.334 145.48 86.542 143.8V143.584H88.822C90.502 145.136 91.79 147.112 92.686 149.512C93.598 151.896 94.054 154.464 94.054 157.216C94.054 159.904 93.622 162.408 92.758 164.728C91.91 167.048 90.718 168.96 89.182 170.464H86.902ZM99.1924 166.144C98.7764 166.144 98.4244 166 98.1364 165.712C97.8484 165.424 97.7044 165.072 97.7044 164.656C97.7044 164.24 97.8484 163.888 98.1364 163.6C98.4244 163.312 98.7764 163.168 99.1924 163.168C99.5924 163.168 99.9284 163.312 100.2 163.6C100.488 163.888 100.632 164.24 100.632 164.656C100.632 165.072 100.488 165.424 100.2 165.712C99.9284 166 99.5924 166.144 99.1924 166.144ZM99.1924 155.872C98.7764 155.872 98.4244 155.728 98.1364 155.44C97.8484 155.152 97.7044 154.8 97.7044 154.384C97.7044 153.968 97.8484 153.616 98.1364 153.328C98.4244 153.04 98.7764 152.896 99.1924 152.896C99.5924 152.896 99.9284 153.04 100.2 153.328C100.488 153.616 100.632 153.968 100.632 154.384C100.632 154.8 100.488 155.152 100.2 155.44C99.9284 155.728 99.5924 155.872 99.1924 155.872Z" fill="#004BA3"/>
<path d="M108.958 154.648H106.198V166H104.014V154.648H102.31V152.848H104.014V151.912C104.014 150.44 104.39 149.368 105.142 148.696C105.91 148.008 107.134 147.664 108.814 147.664V149.488C107.854 149.488 107.174 149.68 106.774 150.064C106.39 150.432 106.198 151.048 106.198 151.912V152.848H108.958V154.648ZM123.168 152.848V166H120.984V164.056C120.568 164.728 119.984 165.256 119.232 165.64C118.496 166.008 117.68 166.192 116.784 166.192C115.76 166.192 114.84 165.984 114.024 165.568C113.208 165.136 112.56 164.496 112.08 163.648C111.616 162.8 111.384 161.768 111.384 160.552V152.848H113.544V160.264C113.544 161.56 113.872 162.56 114.528 163.264C115.184 163.952 116.08 164.296 117.216 164.296C118.384 164.296 119.304 163.936 119.976 163.216C120.648 162.496 120.984 161.448 120.984 160.072V152.848H123.168ZM133.264 152.608C134.864 152.608 136.16 153.096 137.152 154.072C138.144 155.032 138.64 156.424 138.64 158.248V166H136.48V158.56C136.48 157.248 136.152 156.248 135.496 155.56C134.84 154.856 133.944 154.504 132.808 154.504C131.656 154.504 130.736 154.864 130.048 155.584C129.376 156.304 129.04 157.352 129.04 158.728V166H126.856V152.848H129.04V154.72C129.472 154.048 130.056 153.528 130.792 153.16C131.544 152.792 132.368 152.608 133.264 152.608ZM141.391 159.4C141.391 158.04 141.663 156.856 142.207 155.848C142.751 154.824 143.503 154.032 144.463 153.472C145.439 152.912 146.551 152.632 147.799 152.632C149.415 152.632 150.743 153.024 151.783 153.808C152.839 154.592 153.535 155.68 153.871 157.072H151.519C151.295 156.272 150.855 155.64 150.199 155.176C149.559 154.712 148.759 154.48 147.799 154.48C146.551 154.48 145.543 154.912 144.775 155.776C144.007 156.624 143.623 157.832 143.623 159.4C143.623 160.984 144.007 162.208 144.775 163.072C145.543 163.936 146.551 164.368 147.799 164.368C148.759 164.368 149.559 164.144 150.199 163.696C150.839 163.248 151.279 162.608 151.519 161.776H153.871C153.519 163.12 152.815 164.2 151.759 165.016C150.703 165.816 149.383 166.216 147.799 166.216C146.551 166.216 145.439 165.936 144.463 165.376C143.503 164.816 142.751 164.024 142.207 163C141.663 161.976 141.391 160.776 141.391 159.4ZM159.45 154.648V162.4C159.45 163.04 159.586 163.496 159.858 163.768C160.13 164.024 160.602 164.152 161.273 164.152H162.882V166H160.914C159.698 166 158.786 165.72 158.178 165.16C157.57 164.6 157.266 163.68 157.266 162.4V154.648H155.562V152.848H157.266V149.536H159.45V152.848H162.882V154.648H159.45ZM166.656 150.712C166.24 150.712 165.888 150.568 165.6 150.28C165.312 149.992 165.168 149.64 165.168 149.224C165.168 148.808 165.312 148.456 165.6 148.168C165.888 147.88 166.24 147.736 166.656 147.736C167.056 147.736 167.392 147.88 167.664 148.168C167.952 148.456 168.096 148.808 168.096 149.224C168.096 149.64 167.952 149.992 167.664 150.28C167.392 150.568 167.056 150.712 166.656 150.712ZM167.712 152.848V166H165.528V152.848H167.712ZM177.17 166.216C175.938 166.216 174.818 165.936 173.81 165.376C172.818 164.816 172.034 164.024 171.458 163C170.898 161.96 170.618 160.76 170.618 159.4C170.618 158.056 170.906 156.872 171.482 155.848C172.074 154.808 172.874 154.016 173.882 153.472C174.89 152.912 176.018 152.632 177.266 152.632C178.514 152.632 179.642 152.912 180.65 153.472C181.658 154.016 182.45 154.8 183.026 155.824C183.618 156.848 183.914 158.04 183.914 159.4C183.914 160.76 183.61 161.96 183.002 163C182.41 164.024 181.602 164.816 180.578 165.376C179.554 165.936 178.418 166.216 177.17 166.216ZM177.17 164.296C177.954 164.296 178.69 164.112 179.378 163.744C180.066 163.376 180.618 162.824 181.034 162.088C181.466 161.352 181.682 160.456 181.682 159.4C181.682 158.344 181.474 157.448 181.058 156.712C180.642 155.976 180.098 155.432 179.426 155.08C178.754 154.712 178.026 154.528 177.242 154.528C176.442 154.528 175.706 154.712 175.034 155.08C174.378 155.432 173.85 155.976 173.45 156.712C173.05 157.448 172.85 158.344 172.85 159.4C172.85 160.472 173.042 161.376 173.426 162.112C173.826 162.848 174.354 163.4 175.01 163.768C175.666 164.12 176.386 164.296 177.17 164.296ZM193.194 152.608C194.794 152.608 196.09 153.096 197.082 154.072C198.074 155.032 198.57 156.424 198.57 158.248V166H196.41V158.56C196.41 157.248 196.082 156.248 195.426 155.56C194.77 154.856 193.874 154.504 192.738 154.504C191.586 154.504 190.666 154.864 189.978 155.584C189.306 156.304 188.97 157.352 188.97 158.728V166H186.786V152.848H188.97V154.72C189.402 154.048 189.986 153.528 190.722 153.16C191.474 152.792 192.298 152.608 193.194 152.608Z" fill="black"/>
<path d="M14.328 158.152H9.216V163.336H7.176V158.152H2.088V156.304H7.176V151.096H9.216V156.304H14.328V158.152Z" fill="black"/>
<path d="M26.032 195.296C26.48 194.512 27.136 193.872 28 193.376C28.864 192.88 29.848 192.632 30.952 192.632C32.136 192.632 33.2 192.912 34.144 193.472C35.088 194.032 35.832 194.824 36.376 195.848C36.92 196.856 37.192 198.032 37.192 199.376C37.192 200.704 36.92 201.888 36.376 202.928C35.832 203.968 35.08 204.776 34.12 205.352C33.176 205.928 32.12 206.216 30.952 206.216C29.816 206.216 28.816 205.968 27.952 205.472C27.104 204.976 26.464 204.344 26.032 203.576V206H23.848V188.24H26.032V195.296ZM34.96 199.376C34.96 198.384 34.76 197.52 34.36 196.784C33.96 196.048 33.416 195.488 32.728 195.104C32.056 194.72 31.312 194.528 30.496 194.528C29.696 194.528 28.952 194.728 28.264 195.128C27.592 195.512 27.048 196.08 26.632 196.832C26.232 197.568 26.032 198.424 26.032 199.4C26.032 200.392 26.232 201.264 26.632 202.016C27.048 202.752 27.592 203.32 28.264 203.72C28.952 204.104 29.696 204.296 30.496 204.296C31.312 204.296 32.056 204.104 32.728 203.72C33.416 203.32 33.96 202.752 34.36 202.016C34.76 201.264 34.96 200.384 34.96 199.376ZM39.2508 199.376C39.2508 198.032 39.5228 196.856 40.0668 195.848C40.6108 194.824 41.3548 194.032 42.2988 193.472C43.2588 192.912 44.3228 192.632 45.4908 192.632C46.6428 192.632 47.6428 192.88 48.4908 193.376C49.3388 193.872 49.9708 194.496 50.3868 195.248V192.848H52.5948V206H50.3868V203.552C49.9548 204.32 49.3068 204.96 48.4428 205.472C47.5948 205.968 46.6028 206.216 45.4668 206.216C44.2988 206.216 43.2428 205.928 42.2988 205.352C41.3548 204.776 40.6108 203.968 40.0668 202.928C39.5228 201.888 39.2508 200.704 39.2508 199.376ZM50.3868 199.4C50.3868 198.408 50.1868 197.544 49.7868 196.808C49.3868 196.072 48.8428 195.512 48.1548 195.128C47.4828 194.728 46.7388 194.528 45.9228 194.528C45.1068 194.528 44.3628 194.72 43.6908 195.104C43.0188 195.488 42.4828 196.048 42.0828 196.784C41.6828 197.52 41.4828 198.384 41.4828 199.376C41.4828 200.384 41.6828 201.264 42.0828 202.016C42.4828 202.752 43.0188 203.32 43.6908 203.72C44.3628 204.104 45.1068 204.296 45.9228 204.296C46.7388 204.296 47.4828 204.104 48.1548 203.72C48.8428 203.32 49.3868 202.752 49.7868 202.016C50.1868 201.264 50.3868 200.392 50.3868 199.4ZM55.4695 199.4C55.4695 198.04 55.7415 196.856 56.2855 195.848C56.8295 194.824 57.5815 194.032 58.5415 193.472C59.5175 192.912 60.6295 192.632 61.8775 192.632C63.4935 192.632 64.8215 193.024 65.8615 193.808C66.9175 194.592 67.6135 195.68 67.9495 197.072H65.5975C65.3735 196.272 64.9335 195.64 64.2775 195.176C63.6375 194.712 62.8375 194.48 61.8775 194.48C60.6295 194.48 59.6215 194.912 58.8535 195.776C58.0855 196.624 57.7015 197.832 57.7015 199.4C57.7015 200.984 58.0855 202.208 58.8535 203.072C59.6215 203.936 60.6295 204.368 61.8775 204.368C62.8375 204.368 63.6375 204.144 64.2775 203.696C64.9175 203.248 65.3575 202.608 65.5975 201.776H67.9495C67.5975 203.12 66.8935 204.2 65.8375 205.016C64.7815 205.816 63.4615 206.216 61.8775 206.216C60.6295 206.216 59.5175 205.936 58.5415 205.376C57.5815 204.816 56.8295 204.024 56.2855 203C55.7415 201.976 55.4695 200.776 55.4695 199.4ZM78.2076 206L73.0476 200.192V206H70.8636V188.24H73.0476V198.68L78.1116 192.848H81.1596L74.9676 199.4L81.1836 206H78.2076ZM88.8312 210.464C87.2952 208.96 86.0952 207.048 85.2312 204.728C84.3832 202.408 83.9592 199.904 83.9592 197.216C83.9592 194.464 84.4072 191.896 85.3032 189.512C86.2152 187.112 87.5112 185.136 89.1912 183.584H91.4712V183.8C89.6792 185.48 88.3272 187.504 87.4152 189.872C86.5192 192.224 86.0712 194.672 86.0712 197.216C86.0712 199.696 86.4952 202.064 87.3432 204.32C88.2072 206.576 89.4632 208.552 91.1112 210.248V210.464H88.8312ZM93.4176 210.464V210.248C95.0656 208.552 96.3136 206.576 97.1616 204.32C98.0256 202.064 98.4576 199.696 98.4576 197.216C98.4576 194.672 98.0016 192.224 97.0896 189.872C96.1936 187.504 94.8496 185.48 93.0576 183.8V183.584H95.3376C97.0176 185.136 98.3056 187.112 99.2016 189.512C100.114 191.896 100.57 194.464 100.57 197.216C100.57 199.904 100.138 202.408 99.2736 204.728C98.4256 207.048 97.2336 208.96 95.6976 210.464H93.4176ZM105.708 206.144C105.292 206.144 104.94 206 104.652 205.712C104.364 205.424 104.22 205.072 104.22 204.656C104.22 204.24 104.364 203.888 104.652 203.6C104.94 203.312 105.292 203.168 105.708 203.168C106.108 203.168 106.444 203.312 106.716 203.6C107.004 203.888 107.148 204.24 107.148 204.656C107.148 205.072 107.004 205.424 106.716 205.712C106.444 206 106.108 206.144 105.708 206.144ZM105.708 195.872C105.292 195.872 104.94 195.728 104.652 195.44C104.364 195.152 104.22 194.8 104.22 194.384C104.22 193.968 104.364 193.616 104.652 193.328C104.94 193.04 105.292 192.896 105.708 192.896C106.108 192.896 106.444 193.04 106.716 193.328C107.004 193.616 107.148 193.968 107.148 194.384C107.148 194.8 107.004 195.152 106.716 195.44C106.444 195.728 106.108 195.872 105.708 195.872Z" fill="#004BA3"/>
<path d="M115.473 194.648H112.713V206H110.529V194.648H108.825V192.848H110.529V191.912C110.529 190.44 110.905 189.368 111.657 188.696C112.425 188.008 113.649 187.664 115.329 187.664V189.488C114.369 189.488 113.689 189.68 113.289 190.064C112.905 190.432 112.713 191.048 112.713 191.912V192.848H115.473V194.648ZM129.684 192.848V206H127.5V204.056C127.084 204.728 126.5 205.256 125.748 205.64C125.012 206.008 124.196 206.192 123.3 206.192C122.276 206.192 121.356 205.984 120.54 205.568C119.724 205.136 119.076 204.496 118.596 203.648C118.132 202.8 117.9 201.768 117.9 200.552V192.848H120.06V200.264C120.06 201.56 120.388 202.56 121.044 203.264C121.7 203.952 122.596 204.296 123.732 204.296C124.9 204.296 125.82 203.936 126.492 203.216C127.164 202.496 127.5 201.448 127.5 200.072V192.848H129.684ZM139.779 192.608C141.379 192.608 142.675 193.096 143.667 194.072C144.659 195.032 145.155 196.424 145.155 198.248V206H142.995V198.56C142.995 197.248 142.667 196.248 142.011 195.56C141.355 194.856 140.459 194.504 139.323 194.504C138.171 194.504 137.251 194.864 136.563 195.584C135.891 196.304 135.555 197.352 135.555 198.728V206H133.371V192.848H135.555V194.72C135.987 194.048 136.571 193.528 137.307 193.16C138.059 192.792 138.883 192.608 139.779 192.608ZM147.907 199.4C147.907 198.04 148.179 196.856 148.723 195.848C149.267 194.824 150.019 194.032 150.979 193.472C151.955 192.912 153.067 192.632 154.315 192.632C155.931 192.632 157.259 193.024 158.299 193.808C159.355 194.592 160.051 195.68 160.387 197.072H158.035C157.811 196.272 157.371 195.64 156.715 195.176C156.075 194.712 155.275 194.48 154.315 194.48C153.067 194.48 152.059 194.912 151.291 195.776C150.523 196.624 150.139 197.832 150.139 199.4C150.139 200.984 150.523 202.208 151.291 203.072C152.059 203.936 153.067 204.368 154.315 204.368C155.275 204.368 156.075 204.144 156.715 203.696C157.355 203.248 157.795 202.608 158.035 201.776H160.387C160.035 203.12 159.331 204.2 158.275 205.016C157.219 205.816 155.899 206.216 154.315 206.216C153.067 206.216 151.955 205.936 150.979 205.376C150.019 204.816 149.267 204.024 148.723 203C148.179 201.976 147.907 200.776 147.907 199.4ZM165.965 194.648V202.4C165.965 203.04 166.101 203.496 166.373 203.768C166.645 204.024 167.117 204.152 167.789 204.152H169.397V206H167.429C166.213 206 165.301 205.72 164.693 205.16C164.085 204.6 163.781 203.68 163.781 202.4V194.648H162.077V192.848H163.781V189.536H165.965V192.848H169.397V194.648H165.965ZM173.171 190.712C172.755 190.712 172.403 190.568 172.115 190.28C171.827 189.992 171.683 189.64 171.683 189.224C171.683 188.808 171.827 188.456 172.115 188.168C172.403 187.88 172.755 187.736 173.171 187.736C173.571 187.736 173.907 187.88 174.179 188.168C174.467 188.456 174.611 188.808 174.611 189.224C174.611 189.64 174.467 189.992 174.179 190.28C173.907 190.568 173.571 190.712 173.171 190.712ZM174.227 192.848V206H172.043V192.848H174.227ZM183.686 206.216C182.454 206.216 181.334 205.936 180.326 205.376C179.334 204.816 178.55 204.024 177.974 203C177.414 201.96 177.134 200.76 177.134 199.4C177.134 198.056 177.422 196.872 177.998 195.848C178.59 194.808 179.39 194.016 180.398 193.472C181.406 192.912 182.534 192.632 183.782 192.632C185.03 192.632 186.158 192.912 187.166 193.472C188.174 194.016 188.966 194.8 189.542 195.824C190.134 196.848 190.43 198.04 190.43 199.4C190.43 200.76 190.126 201.96 189.518 203C188.926 204.024 188.118 204.816 187.094 205.376C186.07 205.936 184.934 206.216 183.686 206.216ZM183.686 204.296C184.47 204.296 185.206 204.112 185.894 203.744C186.582 203.376 187.134 202.824 187.55 202.088C187.982 201.352 188.198 200.456 188.198 199.4C188.198 198.344 187.99 197.448 187.574 196.712C187.158 195.976 186.614 195.432 185.942 195.08C185.27 194.712 184.542 194.528 183.758 194.528C182.958 194.528 182.222 194.712 181.55 195.08C180.894 195.432 180.366 195.976 179.966 196.712C179.566 197.448 179.366 198.344 179.366 199.4C179.366 200.472 179.558 201.376 179.942 202.112C180.342 202.848 180.87 203.4 181.526 203.768C182.182 204.12 182.902 204.296 183.686 204.296ZM199.709 192.608C201.309 192.608 202.605 193.096 203.597 194.072C204.589 195.032 205.085 196.424 205.085 198.248V206H202.925V198.56C202.925 197.248 202.597 196.248 201.941 195.56C201.285 194.856 200.389 194.504 199.253 194.504C198.101 194.504 197.181 194.864 196.493 195.584C195.821 196.304 195.485 197.352 195.485 198.728V206H193.301V192.848H195.485V194.72C195.917 194.048 196.501 193.528 197.237 193.16C197.989 192.792 198.813 192.608 199.709 192.608Z" fill="black"/>
<path d="M14.328 198.152H9.216V203.336H7.176V198.152H2.088V196.304H7.176V191.096H9.216V196.304H14.328V198.152Z" fill="black"/>
<path d="M26.512 235.648V243.4C26.512 244.04 26.648 244.496 26.92 244.768C27.192 245.024 27.664 245.152 28.336 245.152H29.944V247H27.976C26.76 247 25.848 246.72 25.24 246.16C24.632 245.6 24.328 244.68 24.328 243.4V235.648H22.624V233.848H24.328V230.536H26.512V233.848H29.944V235.648H26.512ZM44.2542 233.848V247H42.0702V245.056C41.6542 245.728 41.0702 246.256 40.3182 246.64C39.5822 247.008 38.7662 247.192 37.8702 247.192C36.8462 247.192 35.9262 246.984 35.1102 246.568C34.2942 246.136 33.6462 245.496 33.1662 244.648C32.7022 243.8 32.4702 242.768 32.4702 241.552V233.848H34.6302V241.264C34.6302 242.56 34.9582 243.56 35.6142 244.264C36.2702 244.952 37.1662 245.296 38.3022 245.296C39.4702 245.296 40.3902 244.936 41.0622 244.216C41.7342 243.496 42.0702 242.448 42.0702 241.072V233.848H44.2542ZM50.1258 235.984C50.5098 235.232 51.0538 234.648 51.7578 234.232C52.4778 233.816 53.3498 233.608 54.3738 233.608V235.864H53.7978C51.3498 235.864 50.1258 237.192 50.1258 239.848V247H47.9418V233.848H50.1258V235.984ZM63.3029 233.608C64.9029 233.608 66.1989 234.096 67.1909 235.072C68.1829 236.032 68.6789 237.424 68.6789 239.248V247H66.5189V239.56C66.5189 238.248 66.1909 237.248 65.5349 236.56C64.8789 235.856 63.9829 235.504 62.8469 235.504C61.6949 235.504 60.7749 235.864 60.0869 236.584C59.4149 237.304 59.0789 238.352 59.0789 239.728V247H56.8949V233.848H59.0789V235.72C59.5109 235.048 60.0949 234.528 60.8309 234.16C61.5829 233.792 62.4069 233.608 63.3029 233.608ZM85.6864 247.912V249.928H72.9184V247.912H85.6864ZM95.584 247.216C94.352 247.216 93.232 246.936 92.224 246.376C91.232 245.816 90.448 245.024 89.872 244C89.312 242.96 89.032 241.76 89.032 240.4C89.032 239.056 89.32 237.872 89.896 236.848C90.488 235.808 91.288 235.016 92.296 234.472C93.304 233.912 94.432 233.632 95.68 233.632C96.928 233.632 98.056 233.912 99.064 234.472C100.072 235.016 100.864 235.8 101.44 236.824C102.032 237.848 102.328 239.04 102.328 240.4C102.328 241.76 102.024 242.96 101.416 244C100.824 245.024 100.016 245.816 98.992 246.376C97.968 246.936 96.832 247.216 95.584 247.216ZM95.584 245.296C96.368 245.296 97.104 245.112 97.792 244.744C98.48 244.376 99.032 243.824 99.448 243.088C99.88 242.352 100.096 241.456 100.096 240.4C100.096 239.344 99.888 238.448 99.472 237.712C99.056 236.976 98.512 236.432 97.84 236.08C97.168 235.712 96.44 235.528 95.656 235.528C94.856 235.528 94.12 235.712 93.448 236.08C92.792 236.432 92.264 236.976 91.864 237.712C91.464 238.448 91.264 239.344 91.264 240.4C91.264 241.472 91.456 242.376 91.84 243.112C92.24 243.848 92.768 244.4 93.424 244.768C94.08 245.12 94.8 245.296 95.584 245.296ZM110.552 235.648H107.792V247H105.608V235.648H103.904V233.848H105.608V232.912C105.608 231.44 105.984 230.368 106.736 229.696C107.504 229.008 108.728 228.664 110.408 228.664V230.488C109.448 230.488 108.768 230.68 108.368 231.064C107.984 231.432 107.792 232.048 107.792 232.912V233.848H110.552V235.648ZM118.45 235.648H115.69V247H113.506V235.648H111.802V233.848H113.506V232.912C113.506 231.44 113.882 230.368 114.634 229.696C115.402 229.008 116.626 228.664 118.306 228.664V230.488C117.346 230.488 116.666 230.68 116.266 231.064C115.882 231.432 115.69 232.048 115.69 232.912V233.848H118.45V235.648ZM126.612 251.464C125.076 249.96 123.876 248.048 123.012 245.728C122.164 243.408 121.74 240.904 121.74 238.216C121.74 235.464 122.188 232.896 123.084 230.512C123.996 228.112 125.292 226.136 126.972 224.584H129.252V224.8C127.46 226.48 126.108 228.504 125.196 230.872C124.3 233.224 123.852 235.672 123.852 238.216C123.852 240.696 124.276 243.064 125.124 245.32C125.988 247.576 127.244 249.552 128.892 251.248V251.464H126.612ZM131.199 251.464V251.248C132.847 249.552 134.095 247.576 134.943 245.32C135.807 243.064 136.239 240.696 136.239 238.216C136.239 235.672 135.783 233.224 134.871 230.872C133.975 228.504 132.631 226.48 130.839 224.8V224.584H133.119C134.799 226.136 136.087 228.112 136.983 230.512C137.895 232.896 138.351 235.464 138.351 238.216C138.351 240.904 137.919 243.408 137.055 245.728C136.207 248.048 135.015 249.96 133.479 251.464H131.199ZM143.489 247.144C143.073 247.144 142.721 247 142.433 246.712C142.145 246.424 142.001 246.072 142.001 245.656C142.001 245.24 142.145 244.888 142.433 244.6C142.721 244.312 143.073 244.168 143.489 244.168C143.889 244.168 144.225 244.312 144.497 244.6C144.785 244.888 144.929 245.24 144.929 245.656C144.929 246.072 144.785 246.424 144.497 246.712C144.225 247 143.889 247.144 143.489 247.144ZM143.489 236.872C143.073 236.872 142.721 236.728 142.433 236.44C142.145 236.152 142.001 235.8 142.001 235.384C142.001 234.968 142.145 234.616 142.433 234.328C142.721 234.04 143.073 233.896 143.489 233.896C143.889 233.896 144.225 234.04 144.497 234.328C144.785 234.616 144.929 234.968 144.929 235.384C144.929 235.8 144.785 236.152 144.497 236.44C144.225 236.728 143.889 236.872 143.489 236.872Z" fill="#004BA3"/>
<path d="M150.087 236.296C150.535 235.512 151.191 234.872 152.055 234.376C152.919 233.88 153.903 233.632 155.007 233.632C156.191 233.632 157.255 233.912 158.199 234.472C159.143 235.032 159.887 235.824 160.431 236.848C160.975 237.856 161.247 239.032 161.247 240.376C161.247 241.704 160.975 242.888 160.431 243.928C159.887 244.968 159.135 245.776 158.175 246.352C157.231 246.928 156.175 247.216 155.007 247.216C153.871 247.216 152.871 246.968 152.007 246.472C151.159 245.976 150.519 245.344 150.087 244.576V247H147.903V229.24H150.087V236.296ZM159.015 240.376C159.015 239.384 158.815 238.52 158.415 237.784C158.015 237.048 157.471 236.488 156.783 236.104C156.111 235.72 155.367 235.528 154.551 235.528C153.751 235.528 153.007 235.728 152.319 236.128C151.647 236.512 151.103 237.08 150.687 237.832C150.287 238.568 150.087 239.424 150.087 240.4C150.087 241.392 150.287 242.264 150.687 243.016C151.103 243.752 151.647 244.32 152.319 244.72C153.007 245.104 153.751 245.296 154.551 245.296C155.367 245.296 156.111 245.104 156.783 244.72C157.471 244.32 158.015 243.752 158.415 243.016C158.815 242.264 159.015 241.384 159.015 240.376ZM169.857 247.216C168.625 247.216 167.505 246.936 166.497 246.376C165.505 245.816 164.721 245.024 164.145 244C163.585 242.96 163.305 241.76 163.305 240.4C163.305 239.056 163.593 237.872 164.169 236.848C164.761 235.808 165.561 235.016 166.569 234.472C167.577 233.912 168.705 233.632 169.953 233.632C171.201 233.632 172.329 233.912 173.337 234.472C174.345 235.016 175.137 235.8 175.713 236.824C176.305 237.848 176.601 239.04 176.601 240.4C176.601 241.76 176.297 242.96 175.689 244C175.097 245.024 174.289 245.816 173.265 246.376C172.241 246.936 171.105 247.216 169.857 247.216ZM169.857 245.296C170.641 245.296 171.377 245.112 172.065 244.744C172.753 244.376 173.305 243.824 173.721 243.088C174.153 242.352 174.369 241.456 174.369 240.4C174.369 239.344 174.161 238.448 173.745 237.712C173.329 236.976 172.785 236.432 172.113 236.08C171.441 235.712 170.713 235.528 169.929 235.528C169.129 235.528 168.393 235.712 167.721 236.08C167.065 236.432 166.537 236.976 166.137 237.712C165.737 238.448 165.537 239.344 165.537 240.4C165.537 241.472 165.729 242.376 166.113 243.112C166.513 243.848 167.041 244.4 167.697 244.768C168.353 245.12 169.073 245.296 169.857 245.296ZM185.209 247.216C183.977 247.216 182.857 246.936 181.849 246.376C180.857 245.816 180.073 245.024 179.497 244C178.937 242.96 178.657 241.76 178.657 240.4C178.657 239.056 178.945 237.872 179.521 236.848C180.113 235.808 180.913 235.016 181.921 234.472C182.929 233.912 184.057 233.632 185.305 233.632C186.553 233.632 187.681 233.912 188.689 234.472C189.697 235.016 190.489 235.8 191.065 236.824C191.657 237.848 191.953 239.04 191.953 240.4C191.953 241.76 191.649 242.96 191.041 244C190.449 245.024 189.641 245.816 188.617 246.376C187.593 246.936 186.457 247.216 185.209 247.216ZM185.209 245.296C185.993 245.296 186.729 245.112 187.417 244.744C188.105 244.376 188.657 243.824 189.073 243.088C189.505 242.352 189.721 241.456 189.721 240.4C189.721 239.344 189.513 238.448 189.097 237.712C188.681 236.976 188.137 236.432 187.465 236.08C186.793 235.712 186.065 235.528 185.281 235.528C184.481 235.528 183.745 235.712 183.073 236.08C182.417 236.432 181.889 236.976 181.489 237.712C181.089 238.448 180.889 239.344 180.889 240.4C180.889 241.472 181.081 242.376 181.465 243.112C181.865 243.848 182.393 244.4 183.049 244.768C183.705 245.12 184.425 245.296 185.209 245.296ZM197.009 229.24V247H194.825V229.24H197.009Z" fill="black"/>
<path d="M14.328 239.152H9.216V244.336H7.176V239.152H2.088V237.304H7.176V232.096H9.216V237.304H14.328V239.152Z" fill="black"/>
</svg>
