<svg width="21" height="21" viewBox="0 0 21 21" fill="none" xmlns="http://www.w3.org/2000/svg">
<path d="M3.88001 4.87549C3.98691 4.76357 4.115 4.67404 4.25684 4.61211C4.39868 4.55018 4.55142 4.51709 4.70617 4.51476C4.86092 4.51244 5.01459 4.54093 5.15822 4.59858C5.30185 4.65622 5.43258 4.74187 5.54278 4.85053C5.65299 4.95919 5.74048 5.08869 5.80015 5.23149C5.85982 5.3743 5.89048 5.52754 5.89035 5.68231C5.89021 5.83708 5.85929 5.99027 5.79937 6.13297C5.73945 6.27567 5.65174 6.40502 5.54134 6.51349C4.21917 7.85629 3.48042 9.66668 3.48568 11.5512C3.48568 15.484 6.62401 18.6667 10.4857 18.6667C14.3473 18.6667 17.4857 15.484 17.4857 11.55C17.4857 9.63315 16.7378 7.83999 15.43 6.51349C15.3196 6.40502 15.2319 6.27567 15.172 6.13297C15.1121 5.99027 15.0811 5.83708 15.081 5.68231C15.0809 5.52754 15.1115 5.3743 15.1712 5.23149C15.2309 5.08869 15.3184 4.95919 15.4286 4.85053C15.5388 4.74187 15.6695 4.65622 15.8131 4.59858C15.9568 4.54093 16.1104 4.51244 16.2652 4.51476C16.4199 4.51709 16.5727 4.55018 16.7145 4.61211C16.8564 4.67404 16.9844 4.76357 17.0913 4.87549C18.8437 6.65452 19.8239 9.05284 19.819 11.55C19.819 16.765 15.6447 21 10.4857 21C5.32784 21 1.15234 16.765 1.15234 11.55C1.15234 9.01482 2.14401 6.63482 3.88001 4.87549Z" fill="white"/>
<path d="M11.6523 1.16667C11.6523 0.522334 11.13 0 10.4856 0C9.8413 0 9.31897 0.522334 9.31897 1.16667V11.0833C9.31897 11.7277 9.8413 12.25 10.4856 12.25C11.13 12.25 11.6523 11.7277 11.6523 11.0833V1.16667Z" fill="white"/>
<path d="M0.327497 1.99149C0.114979 1.77146 -0.00261405 1.47675 4.41031e-05 1.17086C0.00270226 0.864961 0.125399 0.572346 0.341709 0.356037C0.558018 0.139727 0.850633 0.0170303 1.15653 0.0143721C1.46243 0.011714 1.75713 0.129307 1.97716 0.341825L20.6438 19.0085C20.8563 19.2285 20.9739 19.5232 20.9713 19.8291C20.9686 20.135 20.8459 20.4276 20.6296 20.6439C20.4133 20.8603 20.1207 20.983 19.8148 20.9856C19.5089 20.9883 19.2142 20.8707 18.9942 20.6582L0.327497 1.99149Z" fill="white"/>
</svg>
