<svg width="18" height="18" viewBox="0 0 18 18" fill="none" xmlns="http://www.w3.org/2000/svg">
<g clip-path="url(#clip0_71_12)">
<path d="M16.125 3H14.125V4.5C14.125 4.64445 14.0966 4.78749 14.0413 4.92095C13.986 5.05441 13.905 5.17567 13.8028 5.27781C13.7007 5.37996 13.5794 5.46098 13.446 5.51626C13.3125 5.57154 13.1695 5.6 13.025 5.6C12.8806 5.6 12.7375 5.57154 12.6041 5.51626C12.4706 5.46098 12.3493 5.37996 12.2472 5.27781C12.145 5.17567 12.064 5.05441 12.0087 4.92095C11.9535 4.78749 11.925 4.64445 11.925 4.5V3H6.10001V4.5C6.10001 4.79173 5.98411 5.07152 5.77782 5.27781C5.57153 5.4841 5.29174 5.6 5.00001 5.6C4.70827 5.6 4.42848 5.4841 4.22219 5.27781C4.0159 5.07152 3.90001 4.79173 3.90001 4.5V3H1.90001C1.78102 2.99864 1.66297 3.02116 1.55283 3.06623C1.4427 3.11129 1.34272 3.17798 1.25881 3.26236C1.1749 3.34674 1.10877 3.44708 1.06431 3.55746C1.01986 3.66784 0.997993 3.78602 1.00001 3.905V15.095C0.99802 15.2119 1.01908 15.328 1.06198 15.4367C1.10488 15.5455 1.16878 15.6447 1.25004 15.7288C1.33129 15.8128 1.42831 15.88 1.53554 15.9265C1.64277 15.9731 1.75813 15.998 1.87501 16H16.125C16.2419 15.998 16.3572 15.9731 16.4645 15.9265C16.5717 15.88 16.6687 15.8128 16.75 15.7288C16.8312 15.6447 16.8951 15.5455 16.938 15.4367C16.9809 15.328 17.002 15.2119 17 15.095V3.905C17.002 3.78812 16.9809 3.67199 16.938 3.56325C16.8951 3.45451 16.8312 3.35528 16.75 3.27124C16.6687 3.1872 16.5717 3.11999 16.4645 3.07345C16.3572 3.02691 16.2419 3.00195 16.125 3ZM5.00001 13H4.00001V12H5.00001V13ZM5.00001 10.5H4.00001V9.5H5.00001V10.5ZM5.00001 8H4.00001V7H5.00001V8ZM8.00001 13H7.00001V12H8.00001V13ZM8.00001 10.5H7.00001V9.5H8.00001V10.5ZM8.00001 8H7.00001V7H8.00001V8ZM11 13H10V12H11V13ZM11 10.5H10V9.5H11V10.5ZM11 8H10V7H11V8ZM14 13H13V12H14V13ZM14 10.5H13V9.5H14V10.5ZM14 8H13V7H14V8Z" fill="white" fill-opacity="0.72"/>
<path d="M5 5C5.13261 5 5.25979 4.94732 5.35355 4.85355C5.44732 4.75979 5.5 4.63261 5.5 4.5V1.5C5.5 1.36739 5.44732 1.24021 5.35355 1.14645C5.25979 1.05268 5.13261 1 5 1C4.86739 1 4.74021 1.05268 4.64645 1.14645C4.55268 1.24021 4.5 1.36739 4.5 1.5V4.5C4.5 4.63261 4.55268 4.75979 4.64645 4.85355C4.74021 4.94732 4.86739 5 5 5Z" fill="white" fill-opacity="0.72"/>
<path d="M13 5C13.1326 5 13.2598 4.94732 13.3536 4.85355C13.4473 4.75979 13.5 4.63261 13.5 4.5V1.5C13.5 1.36739 13.4473 1.24021 13.3536 1.14645C13.2598 1.05268 13.1326 1 13 1C12.8674 1 12.7402 1.05268 12.6464 1.14645C12.5527 1.24021 12.5 1.36739 12.5 1.5V4.5C12.5 4.63261 12.5527 4.75979 12.6464 4.85355C12.7402 4.94732 12.8674 5 13 5Z" fill="white" fill-opacity="0.72"/>
</g>
<defs>
<clipPath id="clip0_71_12">
<rect width="18" height="18" fill="white"/>
</clipPath>
</defs>
</svg>
