<svg width="22" height="22" viewBox="0 0 22 22" fill="none" xmlns="http://www.w3.org/2000/svg">
<path d="M11 16.5V15.125C11.5314 15.0785 12.0294 14.8463 12.4066 14.4691C12.7838 14.0919 13.016 13.5939 13.0625 13.0625H14.4375C14.3931 13.9598 14.0166 14.8086 13.3813 15.4438C12.7461 16.0791 11.8973 16.4556 11 16.5Z" fill="white" fill-opacity="0.72"/>
<path d="M11 19.25C9.35953 19.2482 7.78677 18.5957 6.62679 17.4357C5.4668 16.2757 4.81432 14.703 4.8125 13.0625C4.85002 11.8565 5.20426 10.6817 5.83963 9.65594L10.4177 2.36294C10.4838 2.27014 10.5712 2.19448 10.6725 2.14228C10.7737 2.09007 10.886 2.06284 11 2.06284C11.114 2.06284 11.2263 2.09007 11.3275 2.14228C11.4288 2.19448 11.5162 2.27014 11.5823 2.36294L16.1404 9.62019C16.787 10.6552 17.1483 11.8428 17.1875 13.0625C17.1857 14.703 16.5332 16.2757 15.3732 17.4357C14.2132 18.5957 12.6405 19.2482 11 19.25ZM11 4.0205L7.02488 10.351C6.51336 11.166 6.22463 12.101 6.1875 13.0625C6.1875 14.3389 6.69453 15.5629 7.59705 16.4655C8.49957 17.368 9.72365 17.875 11 17.875C12.2764 17.875 13.5004 17.368 14.403 16.4655C15.3055 15.5629 15.8125 14.3389 15.8125 13.0625C15.7733 12.0874 15.4774 11.1399 14.9545 10.3159L11 4.0205Z" fill="white" fill-opacity="0.72"/>
</svg>
